<svg width="9" height="6" viewBox="0 0 9 6" fill="none" xmlns="http://www.w3.org/2000/svg">
<path d="M8.50155 0.87565C8.947 0.87565 9.17009 1.41422 8.85511 1.7292L4.85388 5.73043C4.65862 5.92569 4.34203 5.92569 4.14677 5.73043L0.145546 1.7292C-0.169436 1.41422 0.0536463 0.87565 0.499099 0.87565L8.50155 0.87565Z" fill="#30373D"/>
<path d="M8.50155 0.87565C8.947 0.87565 9.17009 1.41422 8.85511 1.7292L4.85388 5.73043C4.65862 5.92569 4.34203 5.92569 4.14677 5.73043L0.145546 1.7292C-0.169436 1.41422 0.0536463 0.87565 0.499099 0.87565L8.50155 0.87565Z" fill="black" fill-opacity="0.2"/>
<path d="M8.50155 0.87565C8.947 0.87565 9.17009 1.41422 8.85511 1.7292L4.85388 5.73043C4.65862 5.92569 4.34203 5.92569 4.14677 5.73043L0.145546 1.7292C-0.169436 1.41422 0.0536463 0.87565 0.499099 0.87565L8.50155 0.87565Z" fill="black" fill-opacity="0.2"/>
<path d="M8.50155 0.87565C8.947 0.87565 9.17009 1.41422 8.85511 1.7292L4.85388 5.73043C4.65862 5.92569 4.34203 5.92569 4.14677 5.73043L0.145546 1.7292C-0.169436 1.41422 0.0536463 0.87565 0.499099 0.87565L8.50155 0.87565Z" fill="black" fill-opacity="0.2"/>
<path d="M8.50155 0.87565C8.947 0.87565 9.17009 1.41422 8.85511 1.7292L4.85388 5.73043C4.65862 5.92569 4.34203 5.92569 4.14677 5.73043L0.145546 1.7292C-0.169436 1.41422 0.0536463 0.87565 0.499099 0.87565L8.50155 0.87565Z" fill="black" fill-opacity="0.2"/>
</svg>
