<svg width="30" height="30" viewBox="0 0 30 30" fill="none" xmlns="http://www.w3.org/2000/svg">
<path d="M1.406 12.0003H28.594V10.0003H1.406V12.0003ZM28 11.4063V12.2843H30V11.4063H28ZM24.772 28.0003H5.228V30.0003H24.772V28.0003ZM2 12.2843V11.4063H0V12.2843H2ZM5.792 28.3483C3.2982 23.3606 1.99993 17.8607 2 12.2843H0C0 18.1723 1.37 23.9783 4.004 29.2443L5.792 28.3483ZM5.228 28.0003C5.468 28.0003 5.686 28.1363 5.792 28.3483L4.004 29.2443C4.11877 29.4707 4.29375 29.6611 4.50969 29.7944C4.72564 29.9278 4.97419 29.9991 5.228 30.0003V28.0003ZM24.208 28.3483C24.2613 28.2444 24.342 28.157 24.4415 28.0956C24.5409 28.0343 24.6552 28.0013 24.772 28.0003V30.0003C25.292 30.0003 25.764 29.7083 25.996 29.2443L24.208 28.3483ZM28 12.2843C28 17.8603 26.7 23.3603 24.208 28.3483L25.996 29.2443C28.6292 23.9785 30 18.1718 30 12.2843H28ZM28.594 12.0003C28.4365 12.0003 28.2854 11.9377 28.174 11.8263C28.0626 11.715 28 11.5639 28 11.4063H30C30 11.0334 29.8519 10.6758 29.5882 10.4121C29.3245 10.1485 28.9669 10.0003 28.594 10.0003V12.0003ZM1.406 10.0003C1.03311 10.0003 0.675484 10.1485 0.411808 10.4121C0.148132 10.6758 0 11.0334 0 11.4063H2C2 11.5639 1.93742 11.715 1.82602 11.8263C1.71462 11.9377 1.56354 12.0003 1.406 12.0003V10.0003ZM7.00003 11.0009C7.47404 11.2846 8.08821 11.1306 8.37241 10.657L13.3424 2.37374C13.627 1.89927 13.4728 1.28383 12.998 0.999712C12.524 0.716078 11.9098 0.870012 11.6256 1.34368L6.65565 9.62692C6.37096 10.1014 6.52522 10.7168 7.00003 11.0009ZM17.0006 0.999976C16.5265 1.28399 16.3726 1.89867 16.6569 2.37256L21.6278 10.6573C21.9118 11.1307 22.5258 11.2844 22.9994 11.0007C23.4735 10.7167 23.6274 10.102 23.3431 9.62809L18.3722 1.34339C18.0882 0.869952 17.4742 0.716239 17.0006 0.999976Z" fill="#30373D"/>
<path d="M1.406 12.0003H28.594V10.0003H1.406V12.0003ZM28 11.4063V12.2843H30V11.4063H28ZM24.772 28.0003H5.228V30.0003H24.772V28.0003ZM2 12.2843V11.4063H0V12.2843H2ZM5.792 28.3483C3.2982 23.3606 1.99993 17.8607 2 12.2843H0C0 18.1723 1.37 23.9783 4.004 29.2443L5.792 28.3483ZM5.228 28.0003C5.468 28.0003 5.686 28.1363 5.792 28.3483L4.004 29.2443C4.11877 29.4707 4.29375 29.6611 4.50969 29.7944C4.72564 29.9278 4.97419 29.9991 5.228 30.0003V28.0003ZM24.208 28.3483C24.2613 28.2444 24.342 28.157 24.4415 28.0956C24.5409 28.0343 24.6552 28.0013 24.772 28.0003V30.0003C25.292 30.0003 25.764 29.7083 25.996 29.2443L24.208 28.3483ZM28 12.2843C28 17.8603 26.7 23.3603 24.208 28.3483L25.996 29.2443C28.6292 23.9785 30 18.1718 30 12.2843H28ZM28.594 12.0003C28.4365 12.0003 28.2854 11.9377 28.174 11.8263C28.0626 11.715 28 11.5639 28 11.4063H30C30 11.0334 29.8519 10.6758 29.5882 10.4121C29.3245 10.1485 28.9669 10.0003 28.594 10.0003V12.0003ZM1.406 10.0003C1.03311 10.0003 0.675484 10.1485 0.411808 10.4121C0.148132 10.6758 0 11.0334 0 11.4063H2C2 11.5639 1.93742 11.715 1.82602 11.8263C1.71462 11.9377 1.56354 12.0003 1.406 12.0003V10.0003ZM7.00003 11.0009C7.47404 11.2846 8.08821 11.1306 8.37241 10.657L13.3424 2.37374C13.627 1.89927 13.4728 1.28383 12.998 0.999712C12.524 0.716078 11.9098 0.870012 11.6256 1.34368L6.65565 9.62692C6.37096 10.1014 6.52522 10.7168 7.00003 11.0009ZM17.0006 0.999976C16.5265 1.28399 16.3726 1.89867 16.6569 2.37256L21.6278 10.6573C21.9118 11.1307 22.5258 11.2844 22.9994 11.0007C23.4735 10.7167 23.6274 10.102 23.3431 9.62809L18.3722 1.34339C18.0882 0.869952 17.4742 0.716239 17.0006 0.999976Z" fill="black" fill-opacity="0.2"/>
<path d="M1.406 12.0003H28.594V10.0003H1.406V12.0003ZM28 11.4063V12.2843H30V11.4063H28ZM24.772 28.0003H5.228V30.0003H24.772V28.0003ZM2 12.2843V11.4063H0V12.2843H2ZM5.792 28.3483C3.2982 23.3606 1.99993 17.8607 2 12.2843H0C0 18.1723 1.37 23.9783 4.004 29.2443L5.792 28.3483ZM5.228 28.0003C5.468 28.0003 5.686 28.1363 5.792 28.3483L4.004 29.2443C4.11877 29.4707 4.29375 29.6611 4.50969 29.7944C4.72564 29.9278 4.97419 29.9991 5.228 30.0003V28.0003ZM24.208 28.3483C24.2613 28.2444 24.342 28.157 24.4415 28.0956C24.5409 28.0343 24.6552 28.0013 24.772 28.0003V30.0003C25.292 30.0003 25.764 29.7083 25.996 29.2443L24.208 28.3483ZM28 12.2843C28 17.8603 26.7 23.3603 24.208 28.3483L25.996 29.2443C28.6292 23.9785 30 18.1718 30 12.2843H28ZM28.594 12.0003C28.4365 12.0003 28.2854 11.9377 28.174 11.8263C28.0626 11.715 28 11.5639 28 11.4063H30C30 11.0334 29.8519 10.6758 29.5882 10.4121C29.3245 10.1485 28.9669 10.0003 28.594 10.0003V12.0003ZM1.406 10.0003C1.03311 10.0003 0.675484 10.1485 0.411808 10.4121C0.148132 10.6758 0 11.0334 0 11.4063H2C2 11.5639 1.93742 11.715 1.82602 11.8263C1.71462 11.9377 1.56354 12.0003 1.406 12.0003V10.0003ZM7.00003 11.0009C7.47404 11.2846 8.08821 11.1306 8.37241 10.657L13.3424 2.37374C13.627 1.89927 13.4728 1.28383 12.998 0.999712C12.524 0.716078 11.9098 0.870012 11.6256 1.34368L6.65565 9.62692C6.37096 10.1014 6.52522 10.7168 7.00003 11.0009ZM17.0006 0.999976C16.5265 1.28399 16.3726 1.89867 16.6569 2.37256L21.6278 10.6573C21.9118 11.1307 22.5258 11.2844 22.9994 11.0007C23.4735 10.7167 23.6274 10.102 23.3431 9.62809L18.3722 1.34339C18.0882 0.869952 17.4742 0.716239 17.0006 0.999976Z" fill="black" fill-opacity="0.2"/>
<path d="M1.406 12.0003H28.594V10.0003H1.406V12.0003ZM28 11.4063V12.2843H30V11.4063H28ZM24.772 28.0003H5.228V30.0003H24.772V28.0003ZM2 12.2843V11.4063H0V12.2843H2ZM5.792 28.3483C3.2982 23.3606 1.99993 17.8607 2 12.2843H0C0 18.1723 1.37 23.9783 4.004 29.2443L5.792 28.3483ZM5.228 28.0003C5.468 28.0003 5.686 28.1363 5.792 28.3483L4.004 29.2443C4.11877 29.4707 4.29375 29.6611 4.50969 29.7944C4.72564 29.9278 4.97419 29.9991 5.228 30.0003V28.0003ZM24.208 28.3483C24.2613 28.2444 24.342 28.157 24.4415 28.0956C24.5409 28.0343 24.6552 28.0013 24.772 28.0003V30.0003C25.292 30.0003 25.764 29.7083 25.996 29.2443L24.208 28.3483ZM28 12.2843C28 17.8603 26.7 23.3603 24.208 28.3483L25.996 29.2443C28.6292 23.9785 30 18.1718 30 12.2843H28ZM28.594 12.0003C28.4365 12.0003 28.2854 11.9377 28.174 11.8263C28.0626 11.715 28 11.5639 28 11.4063H30C30 11.0334 29.8519 10.6758 29.5882 10.4121C29.3245 10.1485 28.9669 10.0003 28.594 10.0003V12.0003ZM1.406 10.0003C1.03311 10.0003 0.675484 10.1485 0.411808 10.4121C0.148132 10.6758 0 11.0334 0 11.4063H2C2 11.5639 1.93742 11.715 1.82602 11.8263C1.71462 11.9377 1.56354 12.0003 1.406 12.0003V10.0003ZM7.00003 11.0009C7.47404 11.2846 8.08821 11.1306 8.37241 10.657L13.3424 2.37374C13.627 1.89927 13.4728 1.28383 12.998 0.999712C12.524 0.716078 11.9098 0.870012 11.6256 1.34368L6.65565 9.62692C6.37096 10.1014 6.52522 10.7168 7.00003 11.0009ZM17.0006 0.999976C16.5265 1.28399 16.3726 1.89867 16.6569 2.37256L21.6278 10.6573C21.9118 11.1307 22.5258 11.2844 22.9994 11.0007C23.4735 10.7167 23.6274 10.102 23.3431 9.62809L18.3722 1.34339C18.0882 0.869952 17.4742 0.716239 17.0006 0.999976Z" fill="black" fill-opacity="0.2"/>
<path d="M1.406 12.0003H28.594V10.0003H1.406V12.0003ZM28 11.4063V12.2843H30V11.4063H28ZM24.772 28.0003H5.228V30.0003H24.772V28.0003ZM2 12.2843V11.4063H0V12.2843H2ZM5.792 28.3483C3.2982 23.3606 1.99993 17.8607 2 12.2843H0C0 18.1723 1.37 23.9783 4.004 29.2443L5.792 28.3483ZM5.228 28.0003C5.468 28.0003 5.686 28.1363 5.792 28.3483L4.004 29.2443C4.11877 29.4707 4.29375 29.6611 4.50969 29.7944C4.72564 29.9278 4.97419 29.9991 5.228 30.0003V28.0003ZM24.208 28.3483C24.2613 28.2444 24.342 28.157 24.4415 28.0956C24.5409 28.0343 24.6552 28.0013 24.772 28.0003V30.0003C25.292 30.0003 25.764 29.7083 25.996 29.2443L24.208 28.3483ZM28 12.2843C28 17.8603 26.7 23.3603 24.208 28.3483L25.996 29.2443C28.6292 23.9785 30 18.1718 30 12.2843H28ZM28.594 12.0003C28.4365 12.0003 28.2854 11.9377 28.174 11.8263C28.0626 11.715 28 11.5639 28 11.4063H30C30 11.0334 29.8519 10.6758 29.5882 10.4121C29.3245 10.1485 28.9669 10.0003 28.594 10.0003V12.0003ZM1.406 10.0003C1.03311 10.0003 0.675484 10.1485 0.411808 10.4121C0.148132 10.6758 0 11.0334 0 11.4063H2C2 11.5639 1.93742 11.715 1.82602 11.8263C1.71462 11.9377 1.56354 12.0003 1.406 12.0003V10.0003ZM7.00003 11.0009C7.47404 11.2846 8.08821 11.1306 8.37241 10.657L13.3424 2.37374C13.627 1.89927 13.4728 1.28383 12.998 0.999712C12.524 0.716078 11.9098 0.870012 11.6256 1.34368L6.65565 9.62692C6.37096 10.1014 6.52522 10.7168 7.00003 11.0009ZM17.0006 0.999976C16.5265 1.28399 16.3726 1.89867 16.6569 2.37256L21.6278 10.6573C21.9118 11.1307 22.5258 11.2844 22.9994 11.0007C23.4735 10.7167 23.6274 10.102 23.3431 9.62809L18.3722 1.34339C18.0882 0.869952 17.4742 0.716239 17.0006 0.999976Z" fill="black" fill-opacity="0.2"/>
</svg>
