<svg width="30" height="30" viewBox="0 0 30 30" fill="none" xmlns="http://www.w3.org/2000/svg">
<g clip-path="url(#clip0_5001_3084)">
<path d="M23.7256 30C23.9742 30 24.2127 29.9012 24.3885 29.7254C24.5643 29.5496 24.6631 29.3111 24.6631 29.0625L24.6631 0.9375C24.6631 0.68886 24.5643 0.450401 24.3885 0.274586C24.2127 0.0987701 23.9742 -3.0111e-08 23.7256 -4.09794e-08C23.4769 -5.18478e-08 23.2385 0.0987701 23.0627 0.274586C22.8869 0.450401 22.7881 0.68886 22.7881 0.9375L22.7881 29.0625C22.7881 29.3111 22.8869 29.5496 23.0627 29.7254C23.2385 29.9012 23.4769 30 23.7256 30ZM15.9374 0.9375L15.9374 29.0625C15.9374 29.3111 15.8386 29.5496 15.6628 29.7254C15.487 29.9012 15.2485 30 14.9999 30C14.7512 30 14.5128 29.9012 14.3369 29.7254C14.1611 29.5496 14.0624 29.3111 14.0624 29.0625L14.0624 0.9375C14.0624 0.688859 14.1611 0.450401 14.337 0.274585C14.5128 0.0987697 14.7512 -4.33261e-07 14.9999 -4.22393e-07C15.2485 -4.11525e-07 15.487 0.0987697 15.6628 0.274585C15.8386 0.450401 15.9374 0.68886 15.9374 0.9375ZM7.21164 15L7.21164 29.0625C7.21164 29.3111 7.11287 29.5496 6.93705 29.7254C6.76124 29.9012 6.52278 30 6.27414 30C6.0255 30 5.78704 29.9012 5.61123 29.7254C5.43541 29.5496 5.33664 29.3111 5.33664 29.0625L5.33664 15C5.33664 14.7514 5.43541 14.5129 5.61123 14.3371C5.78705 14.1613 6.0255 14.0625 6.27414 14.0625C6.52278 14.0625 6.76124 14.1613 6.93705 14.3371C7.11287 14.5129 7.21164 14.7514 7.21164 15Z" fill="#30373D"/>
<path d="M23.7256 30C23.9742 30 24.2127 29.9012 24.3885 29.7254C24.5643 29.5496 24.6631 29.3111 24.6631 29.0625L24.6631 0.9375C24.6631 0.68886 24.5643 0.450401 24.3885 0.274586C24.2127 0.0987701 23.9742 -3.0111e-08 23.7256 -4.09794e-08C23.4769 -5.18478e-08 23.2385 0.0987701 23.0627 0.274586C22.8869 0.450401 22.7881 0.68886 22.7881 0.9375L22.7881 29.0625C22.7881 29.3111 22.8869 29.5496 23.0627 29.7254C23.2385 29.9012 23.4769 30 23.7256 30ZM15.9374 0.9375L15.9374 29.0625C15.9374 29.3111 15.8386 29.5496 15.6628 29.7254C15.487 29.9012 15.2485 30 14.9999 30C14.7512 30 14.5128 29.9012 14.3369 29.7254C14.1611 29.5496 14.0624 29.3111 14.0624 29.0625L14.0624 0.9375C14.0624 0.688859 14.1611 0.450401 14.337 0.274585C14.5128 0.0987697 14.7512 -4.33261e-07 14.9999 -4.22393e-07C15.2485 -4.11525e-07 15.487 0.0987697 15.6628 0.274585C15.8386 0.450401 15.9374 0.68886 15.9374 0.9375ZM7.21164 15L7.21164 29.0625C7.21164 29.3111 7.11287 29.5496 6.93705 29.7254C6.76124 29.9012 6.52278 30 6.27414 30C6.0255 30 5.78704 29.9012 5.61123 29.7254C5.43541 29.5496 5.33664 29.3111 5.33664 29.0625L5.33664 15C5.33664 14.7514 5.43541 14.5129 5.61123 14.3371C5.78705 14.1613 6.0255 14.0625 6.27414 14.0625C6.52278 14.0625 6.76124 14.1613 6.93705 14.3371C7.11287 14.5129 7.21164 14.7514 7.21164 15Z" fill="black" fill-opacity="0.2"/>
<path d="M23.7256 30C23.9742 30 24.2127 29.9012 24.3885 29.7254C24.5643 29.5496 24.6631 29.3111 24.6631 29.0625L24.6631 0.9375C24.6631 0.68886 24.5643 0.450401 24.3885 0.274586C24.2127 0.0987701 23.9742 -3.0111e-08 23.7256 -4.09794e-08C23.4769 -5.18478e-08 23.2385 0.0987701 23.0627 0.274586C22.8869 0.450401 22.7881 0.68886 22.7881 0.9375L22.7881 29.0625C22.7881 29.3111 22.8869 29.5496 23.0627 29.7254C23.2385 29.9012 23.4769 30 23.7256 30ZM15.9374 0.9375L15.9374 29.0625C15.9374 29.3111 15.8386 29.5496 15.6628 29.7254C15.487 29.9012 15.2485 30 14.9999 30C14.7512 30 14.5128 29.9012 14.3369 29.7254C14.1611 29.5496 14.0624 29.3111 14.0624 29.0625L14.0624 0.9375C14.0624 0.688859 14.1611 0.450401 14.337 0.274585C14.5128 0.0987697 14.7512 -4.33261e-07 14.9999 -4.22393e-07C15.2485 -4.11525e-07 15.487 0.0987697 15.6628 0.274585C15.8386 0.450401 15.9374 0.68886 15.9374 0.9375ZM7.21164 15L7.21164 29.0625C7.21164 29.3111 7.11287 29.5496 6.93705 29.7254C6.76124 29.9012 6.52278 30 6.27414 30C6.0255 30 5.78704 29.9012 5.61123 29.7254C5.43541 29.5496 5.33664 29.3111 5.33664 29.0625L5.33664 15C5.33664 14.7514 5.43541 14.5129 5.61123 14.3371C5.78705 14.1613 6.0255 14.0625 6.27414 14.0625C6.52278 14.0625 6.76124 14.1613 6.93705 14.3371C7.11287 14.5129 7.21164 14.7514 7.21164 15Z" fill="black" fill-opacity="0.2"/>
<path d="M23.7256 30C23.9742 30 24.2127 29.9012 24.3885 29.7254C24.5643 29.5496 24.6631 29.3111 24.6631 29.0625L24.6631 0.9375C24.6631 0.68886 24.5643 0.450401 24.3885 0.274586C24.2127 0.0987701 23.9742 -3.0111e-08 23.7256 -4.09794e-08C23.4769 -5.18478e-08 23.2385 0.0987701 23.0627 0.274586C22.8869 0.450401 22.7881 0.68886 22.7881 0.9375L22.7881 29.0625C22.7881 29.3111 22.8869 29.5496 23.0627 29.7254C23.2385 29.9012 23.4769 30 23.7256 30ZM15.9374 0.9375L15.9374 29.0625C15.9374 29.3111 15.8386 29.5496 15.6628 29.7254C15.487 29.9012 15.2485 30 14.9999 30C14.7512 30 14.5128 29.9012 14.3369 29.7254C14.1611 29.5496 14.0624 29.3111 14.0624 29.0625L14.0624 0.9375C14.0624 0.688859 14.1611 0.450401 14.337 0.274585C14.5128 0.0987697 14.7512 -4.33261e-07 14.9999 -4.22393e-07C15.2485 -4.11525e-07 15.487 0.0987697 15.6628 0.274585C15.8386 0.450401 15.9374 0.68886 15.9374 0.9375ZM7.21164 15L7.21164 29.0625C7.21164 29.3111 7.11287 29.5496 6.93705 29.7254C6.76124 29.9012 6.52278 30 6.27414 30C6.0255 30 5.78704 29.9012 5.61123 29.7254C5.43541 29.5496 5.33664 29.3111 5.33664 29.0625L5.33664 15C5.33664 14.7514 5.43541 14.5129 5.61123 14.3371C5.78705 14.1613 6.0255 14.0625 6.27414 14.0625C6.52278 14.0625 6.76124 14.1613 6.93705 14.3371C7.11287 14.5129 7.21164 14.7514 7.21164 15Z" fill="black" fill-opacity="0.2"/>
<path d="M23.7256 30C23.9742 30 24.2127 29.9012 24.3885 29.7254C24.5643 29.5496 24.6631 29.3111 24.6631 29.0625L24.6631 0.9375C24.6631 0.68886 24.5643 0.450401 24.3885 0.274586C24.2127 0.0987701 23.9742 -3.0111e-08 23.7256 -4.09794e-08C23.4769 -5.18478e-08 23.2385 0.0987701 23.0627 0.274586C22.8869 0.450401 22.7881 0.68886 22.7881 0.9375L22.7881 29.0625C22.7881 29.3111 22.8869 29.5496 23.0627 29.7254C23.2385 29.9012 23.4769 30 23.7256 30ZM15.9374 0.9375L15.9374 29.0625C15.9374 29.3111 15.8386 29.5496 15.6628 29.7254C15.487 29.9012 15.2485 30 14.9999 30C14.7512 30 14.5128 29.9012 14.3369 29.7254C14.1611 29.5496 14.0624 29.3111 14.0624 29.0625L14.0624 0.9375C14.0624 0.688859 14.1611 0.450401 14.337 0.274585C14.5128 0.0987697 14.7512 -4.33261e-07 14.9999 -4.22393e-07C15.2485 -4.11525e-07 15.487 0.0987697 15.6628 0.274585C15.8386 0.450401 15.9374 0.68886 15.9374 0.9375ZM7.21164 15L7.21164 29.0625C7.21164 29.3111 7.11287 29.5496 6.93705 29.7254C6.76124 29.9012 6.52278 30 6.27414 30C6.0255 30 5.78704 29.9012 5.61123 29.7254C5.43541 29.5496 5.33664 29.3111 5.33664 29.0625L5.33664 15C5.33664 14.7514 5.43541 14.5129 5.61123 14.3371C5.78705 14.1613 6.0255 14.0625 6.27414 14.0625C6.52278 14.0625 6.76124 14.1613 6.93705 14.3371C7.11287 14.5129 7.21164 14.7514 7.21164 15Z" fill="black" fill-opacity="0.2"/>
</g>
<defs>
<clipPath id="clip0_5001_3084">
<rect width="30" height="30" fill="white" transform="matrix(4.37114e-08 -1 -1 -4.37114e-08 30 30)"/>
</clipPath>
</defs>
</svg>
