<svg width="30" height="28" viewBox="0 0 30 28" fill="none" xmlns="http://www.w3.org/2000/svg">
<path d="M21.2543 0.394531C19.8555 0.394531 18.5186 0.715191 17.2808 1.34767C16.4382 1.77812 15.6641 2.35004 15 3.02859C14.3358 2.35004 13.5618 1.77812 12.7192 1.34767C11.4813 0.715191 10.1445 0.394531 8.74565 0.394531C3.92332 0.394531 0 4.31785 0 9.14024C0 12.5559 1.8039 16.1835 5.36153 19.9226C8.33196 23.0445 11.9687 25.6469 14.4964 27.2803L15 27.6057L15.5036 27.2803C18.0313 25.6469 21.668 23.0445 24.6385 19.9226C28.1962 16.1835 30 12.5559 30 9.14024C30 4.31785 26.0767 0.394531 21.2543 0.394531ZM23.2942 18.6434C20.6394 21.4334 17.4058 23.8054 15 25.3928C12.5942 23.8053 9.36056 21.4334 6.7059 18.6434C3.48748 15.261 1.85567 12.0637 1.85567 9.14024C1.85567 5.34107 4.94654 2.2502 8.74571 2.2502C10.933 2.2502 12.9422 3.25492 14.2582 5.00668L15 5.9942L15.7418 5.00668C17.0578 3.25492 19.067 2.2502 21.2543 2.2502C25.0535 2.2502 28.1443 5.34107 28.1443 9.14024C28.1443 12.0637 26.5125 15.261 23.2942 18.6434Z" fill="#30373D"/>
<path d="M21.2543 0.394531C19.8555 0.394531 18.5186 0.715191 17.2808 1.34767C16.4382 1.77812 15.6641 2.35004 15 3.02859C14.3358 2.35004 13.5618 1.77812 12.7192 1.34767C11.4813 0.715191 10.1445 0.394531 8.74565 0.394531C3.92332 0.394531 0 4.31785 0 9.14024C0 12.5559 1.8039 16.1835 5.36153 19.9226C8.33196 23.0445 11.9687 25.6469 14.4964 27.2803L15 27.6057L15.5036 27.2803C18.0313 25.6469 21.668 23.0445 24.6385 19.9226C28.1962 16.1835 30 12.5559 30 9.14024C30 4.31785 26.0767 0.394531 21.2543 0.394531ZM23.2942 18.6434C20.6394 21.4334 17.4058 23.8054 15 25.3928C12.5942 23.8053 9.36056 21.4334 6.7059 18.6434C3.48748 15.261 1.85567 12.0637 1.85567 9.14024C1.85567 5.34107 4.94654 2.2502 8.74571 2.2502C10.933 2.2502 12.9422 3.25492 14.2582 5.00668L15 5.9942L15.7418 5.00668C17.0578 3.25492 19.067 2.2502 21.2543 2.2502C25.0535 2.2502 28.1443 5.34107 28.1443 9.14024C28.1443 12.0637 26.5125 15.261 23.2942 18.6434Z" fill="black" fill-opacity="0.2"/>
<path d="M21.2543 0.394531C19.8555 0.394531 18.5186 0.715191 17.2808 1.34767C16.4382 1.77812 15.6641 2.35004 15 3.02859C14.3358 2.35004 13.5618 1.77812 12.7192 1.34767C11.4813 0.715191 10.1445 0.394531 8.74565 0.394531C3.92332 0.394531 0 4.31785 0 9.14024C0 12.5559 1.8039 16.1835 5.36153 19.9226C8.33196 23.0445 11.9687 25.6469 14.4964 27.2803L15 27.6057L15.5036 27.2803C18.0313 25.6469 21.668 23.0445 24.6385 19.9226C28.1962 16.1835 30 12.5559 30 9.14024C30 4.31785 26.0767 0.394531 21.2543 0.394531ZM23.2942 18.6434C20.6394 21.4334 17.4058 23.8054 15 25.3928C12.5942 23.8053 9.36056 21.4334 6.7059 18.6434C3.48748 15.261 1.85567 12.0637 1.85567 9.14024C1.85567 5.34107 4.94654 2.2502 8.74571 2.2502C10.933 2.2502 12.9422 3.25492 14.2582 5.00668L15 5.9942L15.7418 5.00668C17.0578 3.25492 19.067 2.2502 21.2543 2.2502C25.0535 2.2502 28.1443 5.34107 28.1443 9.14024C28.1443 12.0637 26.5125 15.261 23.2942 18.6434Z" fill="black" fill-opacity="0.2"/>
<path d="M21.2543 0.394531C19.8555 0.394531 18.5186 0.715191 17.2808 1.34767C16.4382 1.77812 15.6641 2.35004 15 3.02859C14.3358 2.35004 13.5618 1.77812 12.7192 1.34767C11.4813 0.715191 10.1445 0.394531 8.74565 0.394531C3.92332 0.394531 0 4.31785 0 9.14024C0 12.5559 1.8039 16.1835 5.36153 19.9226C8.33196 23.0445 11.9687 25.6469 14.4964 27.2803L15 27.6057L15.5036 27.2803C18.0313 25.6469 21.668 23.0445 24.6385 19.9226C28.1962 16.1835 30 12.5559 30 9.14024C30 4.31785 26.0767 0.394531 21.2543 0.394531ZM23.2942 18.6434C20.6394 21.4334 17.4058 23.8054 15 25.3928C12.5942 23.8053 9.36056 21.4334 6.7059 18.6434C3.48748 15.261 1.85567 12.0637 1.85567 9.14024C1.85567 5.34107 4.94654 2.2502 8.74571 2.2502C10.933 2.2502 12.9422 3.25492 14.2582 5.00668L15 5.9942L15.7418 5.00668C17.0578 3.25492 19.067 2.2502 21.2543 2.2502C25.0535 2.2502 28.1443 5.34107 28.1443 9.14024C28.1443 12.0637 26.5125 15.261 23.2942 18.6434Z" fill="black" fill-opacity="0.2"/>
<path d="M21.2543 0.394531C19.8555 0.394531 18.5186 0.715191 17.2808 1.34767C16.4382 1.77812 15.6641 2.35004 15 3.02859C14.3358 2.35004 13.5618 1.77812 12.7192 1.34767C11.4813 0.715191 10.1445 0.394531 8.74565 0.394531C3.92332 0.394531 0 4.31785 0 9.14024C0 12.5559 1.8039 16.1835 5.36153 19.9226C8.33196 23.0445 11.9687 25.6469 14.4964 27.2803L15 27.6057L15.5036 27.2803C18.0313 25.6469 21.668 23.0445 24.6385 19.9226C28.1962 16.1835 30 12.5559 30 9.14024C30 4.31785 26.0767 0.394531 21.2543 0.394531ZM23.2942 18.6434C20.6394 21.4334 17.4058 23.8054 15 25.3928C12.5942 23.8053 9.36056 21.4334 6.7059 18.6434C3.48748 15.261 1.85567 12.0637 1.85567 9.14024C1.85567 5.34107 4.94654 2.2502 8.74571 2.2502C10.933 2.2502 12.9422 3.25492 14.2582 5.00668L15 5.9942L15.7418 5.00668C17.0578 3.25492 19.067 2.2502 21.2543 2.2502C25.0535 2.2502 28.1443 5.34107 28.1443 9.14024C28.1443 12.0637 26.5125 15.261 23.2942 18.6434Z" fill="black" fill-opacity="0.2"/>
</svg>
