<svg width="200" height="53" viewBox="0 0 200 53" fill="none" xmlns="http://www.w3.org/2000/svg">
<g clip-path="url(#clip0_5001_3087)">
<path d="M0 12.0488L0.934579 12.3648V53.4863H0V12.0488Z" fill="#30373D"/>
<path d="M0 12.0488L0.934579 12.3648V53.4863H0V12.0488Z" fill="black" fill-opacity="0.2"/>
<path d="M0 12.0488L0.934579 12.3648V53.4863H0V12.0488Z" fill="black" fill-opacity="0.2"/>
<path d="M0 12.0488L0.934579 12.3648V53.4863H0V12.0488Z" fill="black" fill-opacity="0.2"/>
<path d="M0 12.0488L0.934579 12.3648V53.4863H0V12.0488Z" fill="black" fill-opacity="0.2"/>
<path d="M11.7357 23.6923C11.7038 23.294 11.5545 22.9834 11.2877 22.7604C11.0248 22.5374 10.6246 22.4258 10.0869 22.4258C9.74442 22.4258 9.46364 22.4677 9.2446 22.5513C9.02954 22.6309 8.87024 22.7405 8.76669 22.8799C8.66315 23.0192 8.60938 23.1785 8.6054 23.3578C8.59743 23.5051 8.62332 23.6385 8.68306 23.758C8.74678 23.8735 8.84634 23.979 8.98175 24.0746C9.11716 24.1662 9.2904 24.2499 9.50148 24.3255C9.71256 24.4012 9.96346 24.4689 10.2542 24.5286L11.2578 24.7437C11.9348 24.8871 12.5143 25.0762 12.9962 25.3112C13.4781 25.5462 13.8724 25.823 14.179 26.1416C14.4857 26.4562 14.7107 26.8107 14.8541 27.2049C15.0014 27.5992 15.0771 28.0293 15.0811 28.4953C15.0771 29.2998 14.876 29.9808 14.4777 30.5384C14.0795 31.0959 13.5099 31.5201 12.7692 31.8108C12.0324 32.1015 11.1463 32.2469 10.1108 32.2469C9.04746 32.2469 8.11952 32.0896 7.32699 31.775C6.53844 31.4603 5.92512 30.9764 5.48704 30.3233C5.05293 29.6662 4.83389 28.8258 4.82991 27.8023H7.98411C8.00403 28.1767 8.09762 28.4913 8.26489 28.7462C8.43216 29.0011 8.66713 29.1942 8.9698 29.3257C9.27646 29.4571 9.64087 29.5228 10.063 29.5228C10.4175 29.5228 10.7142 29.479 10.9531 29.3914C11.1921 29.3038 11.3733 29.1823 11.4968 29.027C11.6202 28.8716 11.6839 28.6944 11.6879 28.4953C11.6839 28.3081 11.6222 28.1448 11.5027 28.0054C11.3872 27.8621 11.1961 27.7346 10.9292 27.6231C10.6624 27.5076 10.302 27.4001 9.84796 27.3005L8.62929 27.0377C7.54603 26.8027 6.69177 26.4104 6.0665 25.8608C5.44522 25.3072 5.13657 24.5525 5.14055 23.5967C5.13657 22.8201 5.34366 22.1411 5.76183 21.5596C6.18399 20.9742 6.76744 20.5182 7.51218 20.1916C8.2609 19.865 9.11915 19.7018 10.0869 19.7018C11.0746 19.7018 11.9289 19.867 12.6497 20.1976C13.3706 20.5281 13.9261 20.9941 14.3164 21.5955C14.7107 22.1929 14.9098 22.8918 14.9138 23.6923H11.7357ZM20.3628 19.869L22.8718 28.4953H22.9674L25.4765 19.869H29.228L25.1897 32.1035H20.6496L16.6112 19.869H20.3628ZM31.0793 32.1035V19.869H39.8967V22.5453H34.4008V24.6481H39.4427V27.3244H34.4008V29.4272H39.8728V32.1035H31.0793ZM41.8824 22.5453V19.869H52.5159V22.5453H48.836V32.1035H45.5623V22.5453H41.8824ZM57.7603 19.869V32.1035H54.4388V19.869H57.7603ZM60.0073 32.1035V19.869H63.3288V29.4272H68.2751V32.1035H60.0073ZM80.8764 19.869V32.1035H78.1045L73.6838 25.6756H73.6121V32.1035H70.2907V19.869H73.1103L77.4593 26.273H77.5549V19.869H80.8764ZM86.4419 19.869V32.1035H83.1204V19.869H86.4419ZM88.6889 32.1035V19.869H92.0104V24.8154H92.1776L95.8575 19.869H99.7286L95.5947 25.3172L99.8242 32.1035H95.8575L93.1095 27.5156L92.0104 28.9493V32.1035H88.6889ZM104.709 19.869V32.1035H101.387V19.869H104.709ZM108.796 32.2947C108.334 32.2947 107.937 32.1334 107.607 31.8108C107.28 31.4842 107.119 31.088 107.123 30.622C107.119 30.168 107.28 29.7797 107.607 29.4571C107.937 29.1345 108.334 28.9732 108.796 28.9732C109.234 28.9732 109.62 29.1345 109.955 29.4571C110.293 29.7797 110.464 30.168 110.468 30.622C110.464 30.9326 110.383 31.2154 110.223 31.4703C110.068 31.7212 109.865 31.9223 109.614 32.0736C109.363 32.221 109.09 32.2947 108.796 32.2947ZM112.886 19.869H117.02L119.863 26.7987H120.006L122.85 19.869H126.984V32.1035H123.734V25.0304H123.639L120.914 32.0079H118.955L116.231 24.9827H116.135V32.1035H112.886V19.869ZM141.083 25.9863C141.083 27.3483 140.818 28.4973 140.289 29.4332C139.759 30.3651 139.044 31.072 138.144 31.5539C137.244 32.0318 136.24 32.2708 135.133 32.2708C134.018 32.2708 133.01 32.0298 132.11 31.5479C131.214 31.0621 130.501 30.3532 129.972 29.4212C129.446 28.4853 129.183 27.3403 129.183 25.9863C129.183 24.6242 129.446 23.4772 129.972 22.5453C130.501 21.6094 131.214 20.9025 132.11 20.4246C133.01 19.9427 134.018 19.7018 135.133 19.7018C136.24 19.7018 137.244 19.9427 138.144 20.4246C139.044 20.9025 139.759 21.6094 140.289 22.5453C140.818 23.4772 141.083 24.6242 141.083 25.9863ZM137.666 25.9863C137.666 25.2535 137.568 24.6362 137.373 24.1344C137.182 23.6286 136.897 23.2463 136.519 22.9874C136.145 22.7245 135.683 22.5931 135.133 22.5931C134.584 22.5931 134.12 22.7245 133.741 22.9874C133.367 23.2463 133.082 23.6286 132.887 24.1344C132.696 24.6362 132.6 25.2535 132.6 25.9863C132.6 26.7191 132.696 27.3384 132.887 27.8441C133.082 28.3459 133.367 28.7283 133.741 28.9911C134.12 29.25 134.584 29.3794 135.133 29.3794C135.683 29.3794 136.145 29.25 136.519 28.9911C136.897 28.7283 137.182 28.3459 137.373 27.8441C137.568 27.3384 137.666 26.7191 137.666 25.9863ZM149.888 23.6923C149.856 23.294 149.707 22.9834 149.44 22.7604C149.177 22.5374 148.777 22.4258 148.239 22.4258C147.897 22.4258 147.616 22.4677 147.397 22.5513C147.182 22.6309 147.022 22.7405 146.919 22.8799C146.815 23.0192 146.762 23.1785 146.758 23.3578C146.75 23.5051 146.776 23.6385 146.835 23.758C146.899 23.8735 146.999 23.979 147.134 24.0746C147.269 24.1662 147.443 24.2499 147.654 24.3255C147.865 24.4012 148.116 24.4689 148.406 24.5286L149.41 24.7437C150.087 24.8871 150.667 25.0762 151.148 25.3112C151.63 25.5462 152.025 25.823 152.331 26.1416C152.638 26.4562 152.863 26.8107 153.006 27.2049C153.154 27.5992 153.229 28.0293 153.233 28.4953C153.229 29.2998 153.028 29.9808 152.63 30.5384C152.232 31.0959 151.662 31.5201 150.921 31.8108C150.185 32.1015 149.299 32.2469 148.263 32.2469C147.2 32.2469 146.272 32.0896 145.479 31.775C144.691 31.4603 144.077 30.9764 143.639 30.3233C143.205 29.6662 142.986 28.8258 142.982 27.8023H146.136C146.156 28.1767 146.25 28.4913 146.417 28.7462C146.584 29.0011 146.819 29.1942 147.122 29.3257C147.429 29.4571 147.793 29.5228 148.215 29.5228C148.57 29.5228 148.866 29.479 149.105 29.3914C149.344 29.3038 149.526 29.1823 149.649 29.027C149.772 28.8716 149.836 28.6944 149.84 28.4953C149.836 28.3081 149.774 28.1448 149.655 28.0054C149.539 27.8621 149.348 27.7346 149.081 27.6231C148.815 27.5076 148.454 27.4001 148 27.3005L146.782 27.0377C145.698 26.8027 144.844 26.4104 144.219 25.8608C143.597 25.3072 143.289 24.5525 143.293 23.5967C143.289 22.8201 143.496 22.1411 143.914 21.5596C144.336 20.9742 144.92 20.5182 145.664 20.1916C146.413 19.865 147.271 19.7018 148.239 19.7018C149.227 19.7018 150.081 19.867 150.802 20.1976C151.523 20.5281 152.078 20.9941 152.469 21.5955C152.863 22.1929 153.062 22.8918 153.066 23.6923H149.888ZM166.592 24.457H163.222C163.199 24.1782 163.135 23.9253 163.031 23.6983C162.932 23.4713 162.792 23.2761 162.613 23.1128C162.438 22.9456 162.225 22.8181 161.974 22.7305C161.723 22.6389 161.438 22.5931 161.12 22.5931C160.562 22.5931 160.09 22.7285 159.704 22.9993C159.322 23.2701 159.031 23.6584 158.832 24.1642C158.637 24.67 158.539 25.2774 158.539 25.9863C158.539 26.735 158.639 27.3623 158.838 27.868C159.041 28.3698 159.333 28.7482 159.716 29.0031C160.098 29.254 160.558 29.3794 161.096 29.3794C161.402 29.3794 161.677 29.3416 161.92 29.2659C162.163 29.1863 162.374 29.0728 162.553 28.9254C162.733 28.7781 162.878 28.6008 162.989 28.3937C163.105 28.1827 163.183 27.9457 163.222 27.6828L166.592 27.7067C166.552 28.2245 166.407 28.7522 166.156 29.2898C165.905 29.8235 165.548 30.3173 165.086 30.7713C164.628 31.2214 164.061 31.5838 163.384 31.8586C162.707 32.1334 161.92 32.2708 161.024 32.2708C159.901 32.2708 158.893 32.0298 158.001 31.5479C157.113 31.0661 156.41 30.3572 155.893 29.4212C155.379 28.4853 155.122 27.3403 155.122 25.9863C155.122 24.6242 155.385 23.4772 155.91 22.5453C156.436 21.6094 157.145 20.9025 158.037 20.4246C158.929 19.9427 159.925 19.7018 161.024 19.7018C161.797 19.7018 162.508 19.8073 163.157 20.0184C163.806 20.2294 164.375 20.5381 164.865 20.9443C165.355 21.3466 165.749 21.8424 166.048 22.4318C166.347 23.0212 166.528 23.6963 166.592 24.457ZM180.624 25.9863C180.624 27.3483 180.359 28.4973 179.829 29.4332C179.299 30.3651 178.585 31.072 177.685 31.5539C176.784 32.0318 175.781 32.2708 174.674 32.2708C173.559 32.2708 172.551 32.0298 171.651 31.5479C170.755 31.0621 170.042 30.3532 169.512 29.4212C168.987 28.4853 168.724 27.3403 168.724 25.9863C168.724 24.6242 168.987 23.4772 169.512 22.5453C170.042 21.6094 170.755 20.9025 171.651 20.4246C172.551 19.9427 173.559 19.7018 174.674 19.7018C175.781 19.7018 176.784 19.9427 177.685 20.4246C178.585 20.9025 179.299 21.6094 179.829 22.5453C180.359 23.4772 180.624 24.6242 180.624 25.9863ZM177.207 25.9863C177.207 25.2535 177.109 24.6362 176.914 24.1344C176.723 23.6286 176.438 23.2463 176.06 22.9874C175.685 22.7245 175.223 22.5931 174.674 22.5931C174.124 22.5931 173.66 22.7245 173.282 22.9874C172.907 23.2463 172.623 23.6286 172.428 24.1344C172.236 24.6362 172.141 25.2535 172.141 25.9863C172.141 26.7191 172.236 27.3384 172.428 27.8441C172.623 28.3459 172.907 28.7283 173.282 28.9911C173.66 29.25 174.124 29.3794 174.674 29.3794C175.223 29.3794 175.685 29.25 176.06 28.9911C176.438 28.7283 176.723 28.3459 176.914 27.8441C177.109 27.3384 177.207 26.7191 177.207 25.9863ZM185.168 32.1035L181.559 19.869H185.263L186.936 27.3961H187.032L189.015 19.869H191.93L193.913 27.42H194.009L195.682 19.869H199.385L195.777 32.1035H192.599L190.52 25.2694H190.425L188.346 32.1035H185.168Z" fill="#30373D"/>
<path d="M11.7357 23.6923C11.7038 23.294 11.5545 22.9834 11.2877 22.7604C11.0248 22.5374 10.6246 22.4258 10.0869 22.4258C9.74442 22.4258 9.46364 22.4677 9.2446 22.5513C9.02954 22.6309 8.87024 22.7405 8.76669 22.8799C8.66315 23.0192 8.60938 23.1785 8.6054 23.3578C8.59743 23.5051 8.62332 23.6385 8.68306 23.758C8.74678 23.8735 8.84634 23.979 8.98175 24.0746C9.11716 24.1662 9.2904 24.2499 9.50148 24.3255C9.71256 24.4012 9.96346 24.4689 10.2542 24.5286L11.2578 24.7437C11.9348 24.8871 12.5143 25.0762 12.9962 25.3112C13.4781 25.5462 13.8724 25.823 14.179 26.1416C14.4857 26.4562 14.7107 26.8107 14.8541 27.2049C15.0014 27.5992 15.0771 28.0293 15.0811 28.4953C15.0771 29.2998 14.876 29.9808 14.4777 30.5384C14.0795 31.0959 13.5099 31.5201 12.7692 31.8108C12.0324 32.1015 11.1463 32.2469 10.1108 32.2469C9.04746 32.2469 8.11952 32.0896 7.32699 31.775C6.53844 31.4603 5.92512 30.9764 5.48704 30.3233C5.05293 29.6662 4.83389 28.8258 4.82991 27.8023H7.98411C8.00403 28.1767 8.09762 28.4913 8.26489 28.7462C8.43216 29.0011 8.66713 29.1942 8.9698 29.3257C9.27646 29.4571 9.64087 29.5228 10.063 29.5228C10.4175 29.5228 10.7142 29.479 10.9531 29.3914C11.1921 29.3038 11.3733 29.1823 11.4968 29.027C11.6202 28.8716 11.6839 28.6944 11.6879 28.4953C11.6839 28.3081 11.6222 28.1448 11.5027 28.0054C11.3872 27.8621 11.1961 27.7346 10.9292 27.6231C10.6624 27.5076 10.302 27.4001 9.84796 27.3005L8.62929 27.0377C7.54603 26.8027 6.69177 26.4104 6.0665 25.8608C5.44522 25.3072 5.13657 24.5525 5.14055 23.5967C5.13657 22.8201 5.34366 22.1411 5.76183 21.5596C6.18399 20.9742 6.76744 20.5182 7.51218 20.1916C8.2609 19.865 9.11915 19.7018 10.0869 19.7018C11.0746 19.7018 11.9289 19.867 12.6497 20.1976C13.3706 20.5281 13.9261 20.9941 14.3164 21.5955C14.7107 22.1929 14.9098 22.8918 14.9138 23.6923H11.7357ZM20.3628 19.869L22.8718 28.4953H22.9674L25.4765 19.869H29.228L25.1897 32.1035H20.6496L16.6112 19.869H20.3628ZM31.0793 32.1035V19.869H39.8967V22.5453H34.4008V24.6481H39.4427V27.3244H34.4008V29.4272H39.8728V32.1035H31.0793ZM41.8824 22.5453V19.869H52.5159V22.5453H48.836V32.1035H45.5623V22.5453H41.8824ZM57.7603 19.869V32.1035H54.4388V19.869H57.7603ZM60.0073 32.1035V19.869H63.3288V29.4272H68.2751V32.1035H60.0073ZM80.8764 19.869V32.1035H78.1045L73.6838 25.6756H73.6121V32.1035H70.2907V19.869H73.1103L77.4593 26.273H77.5549V19.869H80.8764ZM86.4419 19.869V32.1035H83.1204V19.869H86.4419ZM88.6889 32.1035V19.869H92.0104V24.8154H92.1776L95.8575 19.869H99.7286L95.5947 25.3172L99.8242 32.1035H95.8575L93.1095 27.5156L92.0104 28.9493V32.1035H88.6889ZM104.709 19.869V32.1035H101.387V19.869H104.709ZM108.796 32.2947C108.334 32.2947 107.937 32.1334 107.607 31.8108C107.28 31.4842 107.119 31.088 107.123 30.622C107.119 30.168 107.28 29.7797 107.607 29.4571C107.937 29.1345 108.334 28.9732 108.796 28.9732C109.234 28.9732 109.62 29.1345 109.955 29.4571C110.293 29.7797 110.464 30.168 110.468 30.622C110.464 30.9326 110.383 31.2154 110.223 31.4703C110.068 31.7212 109.865 31.9223 109.614 32.0736C109.363 32.221 109.09 32.2947 108.796 32.2947ZM112.886 19.869H117.02L119.863 26.7987H120.006L122.85 19.869H126.984V32.1035H123.734V25.0304H123.639L120.914 32.0079H118.955L116.231 24.9827H116.135V32.1035H112.886V19.869ZM141.083 25.9863C141.083 27.3483 140.818 28.4973 140.289 29.4332C139.759 30.3651 139.044 31.072 138.144 31.5539C137.244 32.0318 136.24 32.2708 135.133 32.2708C134.018 32.2708 133.01 32.0298 132.11 31.5479C131.214 31.0621 130.501 30.3532 129.972 29.4212C129.446 28.4853 129.183 27.3403 129.183 25.9863C129.183 24.6242 129.446 23.4772 129.972 22.5453C130.501 21.6094 131.214 20.9025 132.11 20.4246C133.01 19.9427 134.018 19.7018 135.133 19.7018C136.24 19.7018 137.244 19.9427 138.144 20.4246C139.044 20.9025 139.759 21.6094 140.289 22.5453C140.818 23.4772 141.083 24.6242 141.083 25.9863ZM137.666 25.9863C137.666 25.2535 137.568 24.6362 137.373 24.1344C137.182 23.6286 136.897 23.2463 136.519 22.9874C136.145 22.7245 135.683 22.5931 135.133 22.5931C134.584 22.5931 134.12 22.7245 133.741 22.9874C133.367 23.2463 133.082 23.6286 132.887 24.1344C132.696 24.6362 132.6 25.2535 132.6 25.9863C132.6 26.7191 132.696 27.3384 132.887 27.8441C133.082 28.3459 133.367 28.7283 133.741 28.9911C134.12 29.25 134.584 29.3794 135.133 29.3794C135.683 29.3794 136.145 29.25 136.519 28.9911C136.897 28.7283 137.182 28.3459 137.373 27.8441C137.568 27.3384 137.666 26.7191 137.666 25.9863ZM149.888 23.6923C149.856 23.294 149.707 22.9834 149.44 22.7604C149.177 22.5374 148.777 22.4258 148.239 22.4258C147.897 22.4258 147.616 22.4677 147.397 22.5513C147.182 22.6309 147.022 22.7405 146.919 22.8799C146.815 23.0192 146.762 23.1785 146.758 23.3578C146.75 23.5051 146.776 23.6385 146.835 23.758C146.899 23.8735 146.999 23.979 147.134 24.0746C147.269 24.1662 147.443 24.2499 147.654 24.3255C147.865 24.4012 148.116 24.4689 148.406 24.5286L149.41 24.7437C150.087 24.8871 150.667 25.0762 151.148 25.3112C151.63 25.5462 152.025 25.823 152.331 26.1416C152.638 26.4562 152.863 26.8107 153.006 27.2049C153.154 27.5992 153.229 28.0293 153.233 28.4953C153.229 29.2998 153.028 29.9808 152.63 30.5384C152.232 31.0959 151.662 31.5201 150.921 31.8108C150.185 32.1015 149.299 32.2469 148.263 32.2469C147.2 32.2469 146.272 32.0896 145.479 31.775C144.691 31.4603 144.077 30.9764 143.639 30.3233C143.205 29.6662 142.986 28.8258 142.982 27.8023H146.136C146.156 28.1767 146.25 28.4913 146.417 28.7462C146.584 29.0011 146.819 29.1942 147.122 29.3257C147.429 29.4571 147.793 29.5228 148.215 29.5228C148.57 29.5228 148.866 29.479 149.105 29.3914C149.344 29.3038 149.526 29.1823 149.649 29.027C149.772 28.8716 149.836 28.6944 149.84 28.4953C149.836 28.3081 149.774 28.1448 149.655 28.0054C149.539 27.8621 149.348 27.7346 149.081 27.6231C148.815 27.5076 148.454 27.4001 148 27.3005L146.782 27.0377C145.698 26.8027 144.844 26.4104 144.219 25.8608C143.597 25.3072 143.289 24.5525 143.293 23.5967C143.289 22.8201 143.496 22.1411 143.914 21.5596C144.336 20.9742 144.92 20.5182 145.664 20.1916C146.413 19.865 147.271 19.7018 148.239 19.7018C149.227 19.7018 150.081 19.867 150.802 20.1976C151.523 20.5281 152.078 20.9941 152.469 21.5955C152.863 22.1929 153.062 22.8918 153.066 23.6923H149.888ZM166.592 24.457H163.222C163.199 24.1782 163.135 23.9253 163.031 23.6983C162.932 23.4713 162.792 23.2761 162.613 23.1128C162.438 22.9456 162.225 22.8181 161.974 22.7305C161.723 22.6389 161.438 22.5931 161.12 22.5931C160.562 22.5931 160.09 22.7285 159.704 22.9993C159.322 23.2701 159.031 23.6584 158.832 24.1642C158.637 24.67 158.539 25.2774 158.539 25.9863C158.539 26.735 158.639 27.3623 158.838 27.868C159.041 28.3698 159.333 28.7482 159.716 29.0031C160.098 29.254 160.558 29.3794 161.096 29.3794C161.402 29.3794 161.677 29.3416 161.92 29.2659C162.163 29.1863 162.374 29.0728 162.553 28.9254C162.733 28.7781 162.878 28.6008 162.989 28.3937C163.105 28.1827 163.183 27.9457 163.222 27.6828L166.592 27.7067C166.552 28.2245 166.407 28.7522 166.156 29.2898C165.905 29.8235 165.548 30.3173 165.086 30.7713C164.628 31.2214 164.061 31.5838 163.384 31.8586C162.707 32.1334 161.92 32.2708 161.024 32.2708C159.901 32.2708 158.893 32.0298 158.001 31.5479C157.113 31.0661 156.41 30.3572 155.893 29.4212C155.379 28.4853 155.122 27.3403 155.122 25.9863C155.122 24.6242 155.385 23.4772 155.91 22.5453C156.436 21.6094 157.145 20.9025 158.037 20.4246C158.929 19.9427 159.925 19.7018 161.024 19.7018C161.797 19.7018 162.508 19.8073 163.157 20.0184C163.806 20.2294 164.375 20.5381 164.865 20.9443C165.355 21.3466 165.749 21.8424 166.048 22.4318C166.347 23.0212 166.528 23.6963 166.592 24.457ZM180.624 25.9863C180.624 27.3483 180.359 28.4973 179.829 29.4332C179.299 30.3651 178.585 31.072 177.685 31.5539C176.784 32.0318 175.781 32.2708 174.674 32.2708C173.559 32.2708 172.551 32.0298 171.651 31.5479C170.755 31.0621 170.042 30.3532 169.512 29.4212C168.987 28.4853 168.724 27.3403 168.724 25.9863C168.724 24.6242 168.987 23.4772 169.512 22.5453C170.042 21.6094 170.755 20.9025 171.651 20.4246C172.551 19.9427 173.559 19.7018 174.674 19.7018C175.781 19.7018 176.784 19.9427 177.685 20.4246C178.585 20.9025 179.299 21.6094 179.829 22.5453C180.359 23.4772 180.624 24.6242 180.624 25.9863ZM177.207 25.9863C177.207 25.2535 177.109 24.6362 176.914 24.1344C176.723 23.6286 176.438 23.2463 176.06 22.9874C175.685 22.7245 175.223 22.5931 174.674 22.5931C174.124 22.5931 173.66 22.7245 173.282 22.9874C172.907 23.2463 172.623 23.6286 172.428 24.1344C172.236 24.6362 172.141 25.2535 172.141 25.9863C172.141 26.7191 172.236 27.3384 172.428 27.8441C172.623 28.3459 172.907 28.7283 173.282 28.9911C173.66 29.25 174.124 29.3794 174.674 29.3794C175.223 29.3794 175.685 29.25 176.06 28.9911C176.438 28.7283 176.723 28.3459 176.914 27.8441C177.109 27.3384 177.207 26.7191 177.207 25.9863ZM185.168 32.1035L181.559 19.869H185.263L186.936 27.3961H187.032L189.015 19.869H191.93L193.913 27.42H194.009L195.682 19.869H199.385L195.777 32.1035H192.599L190.52 25.2694H190.425L188.346 32.1035H185.168Z" fill="black" fill-opacity="0.2"/>
<path d="M11.7357 23.6923C11.7038 23.294 11.5545 22.9834 11.2877 22.7604C11.0248 22.5374 10.6246 22.4258 10.0869 22.4258C9.74442 22.4258 9.46364 22.4677 9.2446 22.5513C9.02954 22.6309 8.87024 22.7405 8.76669 22.8799C8.66315 23.0192 8.60938 23.1785 8.6054 23.3578C8.59743 23.5051 8.62332 23.6385 8.68306 23.758C8.74678 23.8735 8.84634 23.979 8.98175 24.0746C9.11716 24.1662 9.2904 24.2499 9.50148 24.3255C9.71256 24.4012 9.96346 24.4689 10.2542 24.5286L11.2578 24.7437C11.9348 24.8871 12.5143 25.0762 12.9962 25.3112C13.4781 25.5462 13.8724 25.823 14.179 26.1416C14.4857 26.4562 14.7107 26.8107 14.8541 27.2049C15.0014 27.5992 15.0771 28.0293 15.0811 28.4953C15.0771 29.2998 14.876 29.9808 14.4777 30.5384C14.0795 31.0959 13.5099 31.5201 12.7692 31.8108C12.0324 32.1015 11.1463 32.2469 10.1108 32.2469C9.04746 32.2469 8.11952 32.0896 7.32699 31.775C6.53844 31.4603 5.92512 30.9764 5.48704 30.3233C5.05293 29.6662 4.83389 28.8258 4.82991 27.8023H7.98411C8.00403 28.1767 8.09762 28.4913 8.26489 28.7462C8.43216 29.0011 8.66713 29.1942 8.9698 29.3257C9.27646 29.4571 9.64087 29.5228 10.063 29.5228C10.4175 29.5228 10.7142 29.479 10.9531 29.3914C11.1921 29.3038 11.3733 29.1823 11.4968 29.027C11.6202 28.8716 11.6839 28.6944 11.6879 28.4953C11.6839 28.3081 11.6222 28.1448 11.5027 28.0054C11.3872 27.8621 11.1961 27.7346 10.9292 27.6231C10.6624 27.5076 10.302 27.4001 9.84796 27.3005L8.62929 27.0377C7.54603 26.8027 6.69177 26.4104 6.0665 25.8608C5.44522 25.3072 5.13657 24.5525 5.14055 23.5967C5.13657 22.8201 5.34366 22.1411 5.76183 21.5596C6.18399 20.9742 6.76744 20.5182 7.51218 20.1916C8.2609 19.865 9.11915 19.7018 10.0869 19.7018C11.0746 19.7018 11.9289 19.867 12.6497 20.1976C13.3706 20.5281 13.9261 20.9941 14.3164 21.5955C14.7107 22.1929 14.9098 22.8918 14.9138 23.6923H11.7357ZM20.3628 19.869L22.8718 28.4953H22.9674L25.4765 19.869H29.228L25.1897 32.1035H20.6496L16.6112 19.869H20.3628ZM31.0793 32.1035V19.869H39.8967V22.5453H34.4008V24.6481H39.4427V27.3244H34.4008V29.4272H39.8728V32.1035H31.0793ZM41.8824 22.5453V19.869H52.5159V22.5453H48.836V32.1035H45.5623V22.5453H41.8824ZM57.7603 19.869V32.1035H54.4388V19.869H57.7603ZM60.0073 32.1035V19.869H63.3288V29.4272H68.2751V32.1035H60.0073ZM80.8764 19.869V32.1035H78.1045L73.6838 25.6756H73.6121V32.1035H70.2907V19.869H73.1103L77.4593 26.273H77.5549V19.869H80.8764ZM86.4419 19.869V32.1035H83.1204V19.869H86.4419ZM88.6889 32.1035V19.869H92.0104V24.8154H92.1776L95.8575 19.869H99.7286L95.5947 25.3172L99.8242 32.1035H95.8575L93.1095 27.5156L92.0104 28.9493V32.1035H88.6889ZM104.709 19.869V32.1035H101.387V19.869H104.709ZM108.796 32.2947C108.334 32.2947 107.937 32.1334 107.607 31.8108C107.28 31.4842 107.119 31.088 107.123 30.622C107.119 30.168 107.28 29.7797 107.607 29.4571C107.937 29.1345 108.334 28.9732 108.796 28.9732C109.234 28.9732 109.62 29.1345 109.955 29.4571C110.293 29.7797 110.464 30.168 110.468 30.622C110.464 30.9326 110.383 31.2154 110.223 31.4703C110.068 31.7212 109.865 31.9223 109.614 32.0736C109.363 32.221 109.09 32.2947 108.796 32.2947ZM112.886 19.869H117.02L119.863 26.7987H120.006L122.85 19.869H126.984V32.1035H123.734V25.0304H123.639L120.914 32.0079H118.955L116.231 24.9827H116.135V32.1035H112.886V19.869ZM141.083 25.9863C141.083 27.3483 140.818 28.4973 140.289 29.4332C139.759 30.3651 139.044 31.072 138.144 31.5539C137.244 32.0318 136.24 32.2708 135.133 32.2708C134.018 32.2708 133.01 32.0298 132.11 31.5479C131.214 31.0621 130.501 30.3532 129.972 29.4212C129.446 28.4853 129.183 27.3403 129.183 25.9863C129.183 24.6242 129.446 23.4772 129.972 22.5453C130.501 21.6094 131.214 20.9025 132.11 20.4246C133.01 19.9427 134.018 19.7018 135.133 19.7018C136.24 19.7018 137.244 19.9427 138.144 20.4246C139.044 20.9025 139.759 21.6094 140.289 22.5453C140.818 23.4772 141.083 24.6242 141.083 25.9863ZM137.666 25.9863C137.666 25.2535 137.568 24.6362 137.373 24.1344C137.182 23.6286 136.897 23.2463 136.519 22.9874C136.145 22.7245 135.683 22.5931 135.133 22.5931C134.584 22.5931 134.12 22.7245 133.741 22.9874C133.367 23.2463 133.082 23.6286 132.887 24.1344C132.696 24.6362 132.6 25.2535 132.6 25.9863C132.6 26.7191 132.696 27.3384 132.887 27.8441C133.082 28.3459 133.367 28.7283 133.741 28.9911C134.12 29.25 134.584 29.3794 135.133 29.3794C135.683 29.3794 136.145 29.25 136.519 28.9911C136.897 28.7283 137.182 28.3459 137.373 27.8441C137.568 27.3384 137.666 26.7191 137.666 25.9863ZM149.888 23.6923C149.856 23.294 149.707 22.9834 149.44 22.7604C149.177 22.5374 148.777 22.4258 148.239 22.4258C147.897 22.4258 147.616 22.4677 147.397 22.5513C147.182 22.6309 147.022 22.7405 146.919 22.8799C146.815 23.0192 146.762 23.1785 146.758 23.3578C146.75 23.5051 146.776 23.6385 146.835 23.758C146.899 23.8735 146.999 23.979 147.134 24.0746C147.269 24.1662 147.443 24.2499 147.654 24.3255C147.865 24.4012 148.116 24.4689 148.406 24.5286L149.41 24.7437C150.087 24.8871 150.667 25.0762 151.148 25.3112C151.63 25.5462 152.025 25.823 152.331 26.1416C152.638 26.4562 152.863 26.8107 153.006 27.2049C153.154 27.5992 153.229 28.0293 153.233 28.4953C153.229 29.2998 153.028 29.9808 152.63 30.5384C152.232 31.0959 151.662 31.5201 150.921 31.8108C150.185 32.1015 149.299 32.2469 148.263 32.2469C147.2 32.2469 146.272 32.0896 145.479 31.775C144.691 31.4603 144.077 30.9764 143.639 30.3233C143.205 29.6662 142.986 28.8258 142.982 27.8023H146.136C146.156 28.1767 146.25 28.4913 146.417 28.7462C146.584 29.0011 146.819 29.1942 147.122 29.3257C147.429 29.4571 147.793 29.5228 148.215 29.5228C148.57 29.5228 148.866 29.479 149.105 29.3914C149.344 29.3038 149.526 29.1823 149.649 29.027C149.772 28.8716 149.836 28.6944 149.84 28.4953C149.836 28.3081 149.774 28.1448 149.655 28.0054C149.539 27.8621 149.348 27.7346 149.081 27.6231C148.815 27.5076 148.454 27.4001 148 27.3005L146.782 27.0377C145.698 26.8027 144.844 26.4104 144.219 25.8608C143.597 25.3072 143.289 24.5525 143.293 23.5967C143.289 22.8201 143.496 22.1411 143.914 21.5596C144.336 20.9742 144.92 20.5182 145.664 20.1916C146.413 19.865 147.271 19.7018 148.239 19.7018C149.227 19.7018 150.081 19.867 150.802 20.1976C151.523 20.5281 152.078 20.9941 152.469 21.5955C152.863 22.1929 153.062 22.8918 153.066 23.6923H149.888ZM166.592 24.457H163.222C163.199 24.1782 163.135 23.9253 163.031 23.6983C162.932 23.4713 162.792 23.2761 162.613 23.1128C162.438 22.9456 162.225 22.8181 161.974 22.7305C161.723 22.6389 161.438 22.5931 161.12 22.5931C160.562 22.5931 160.09 22.7285 159.704 22.9993C159.322 23.2701 159.031 23.6584 158.832 24.1642C158.637 24.67 158.539 25.2774 158.539 25.9863C158.539 26.735 158.639 27.3623 158.838 27.868C159.041 28.3698 159.333 28.7482 159.716 29.0031C160.098 29.254 160.558 29.3794 161.096 29.3794C161.402 29.3794 161.677 29.3416 161.92 29.2659C162.163 29.1863 162.374 29.0728 162.553 28.9254C162.733 28.7781 162.878 28.6008 162.989 28.3937C163.105 28.1827 163.183 27.9457 163.222 27.6828L166.592 27.7067C166.552 28.2245 166.407 28.7522 166.156 29.2898C165.905 29.8235 165.548 30.3173 165.086 30.7713C164.628 31.2214 164.061 31.5838 163.384 31.8586C162.707 32.1334 161.92 32.2708 161.024 32.2708C159.901 32.2708 158.893 32.0298 158.001 31.5479C157.113 31.0661 156.41 30.3572 155.893 29.4212C155.379 28.4853 155.122 27.3403 155.122 25.9863C155.122 24.6242 155.385 23.4772 155.91 22.5453C156.436 21.6094 157.145 20.9025 158.037 20.4246C158.929 19.9427 159.925 19.7018 161.024 19.7018C161.797 19.7018 162.508 19.8073 163.157 20.0184C163.806 20.2294 164.375 20.5381 164.865 20.9443C165.355 21.3466 165.749 21.8424 166.048 22.4318C166.347 23.0212 166.528 23.6963 166.592 24.457ZM180.624 25.9863C180.624 27.3483 180.359 28.4973 179.829 29.4332C179.299 30.3651 178.585 31.072 177.685 31.5539C176.784 32.0318 175.781 32.2708 174.674 32.2708C173.559 32.2708 172.551 32.0298 171.651 31.5479C170.755 31.0621 170.042 30.3532 169.512 29.4212C168.987 28.4853 168.724 27.3403 168.724 25.9863C168.724 24.6242 168.987 23.4772 169.512 22.5453C170.042 21.6094 170.755 20.9025 171.651 20.4246C172.551 19.9427 173.559 19.7018 174.674 19.7018C175.781 19.7018 176.784 19.9427 177.685 20.4246C178.585 20.9025 179.299 21.6094 179.829 22.5453C180.359 23.4772 180.624 24.6242 180.624 25.9863ZM177.207 25.9863C177.207 25.2535 177.109 24.6362 176.914 24.1344C176.723 23.6286 176.438 23.2463 176.06 22.9874C175.685 22.7245 175.223 22.5931 174.674 22.5931C174.124 22.5931 173.66 22.7245 173.282 22.9874C172.907 23.2463 172.623 23.6286 172.428 24.1344C172.236 24.6362 172.141 25.2535 172.141 25.9863C172.141 26.7191 172.236 27.3384 172.428 27.8441C172.623 28.3459 172.907 28.7283 173.282 28.9911C173.66 29.25 174.124 29.3794 174.674 29.3794C175.223 29.3794 175.685 29.25 176.06 28.9911C176.438 28.7283 176.723 28.3459 176.914 27.8441C177.109 27.3384 177.207 26.7191 177.207 25.9863ZM185.168 32.1035L181.559 19.869H185.263L186.936 27.3961H187.032L189.015 19.869H191.93L193.913 27.42H194.009L195.682 19.869H199.385L195.777 32.1035H192.599L190.52 25.2694H190.425L188.346 32.1035H185.168Z" fill="black" fill-opacity="0.2"/>
<path d="M11.7357 23.6923C11.7038 23.294 11.5545 22.9834 11.2877 22.7604C11.0248 22.5374 10.6246 22.4258 10.0869 22.4258C9.74442 22.4258 9.46364 22.4677 9.2446 22.5513C9.02954 22.6309 8.87024 22.7405 8.76669 22.8799C8.66315 23.0192 8.60938 23.1785 8.6054 23.3578C8.59743 23.5051 8.62332 23.6385 8.68306 23.758C8.74678 23.8735 8.84634 23.979 8.98175 24.0746C9.11716 24.1662 9.2904 24.2499 9.50148 24.3255C9.71256 24.4012 9.96346 24.4689 10.2542 24.5286L11.2578 24.7437C11.9348 24.8871 12.5143 25.0762 12.9962 25.3112C13.4781 25.5462 13.8724 25.823 14.179 26.1416C14.4857 26.4562 14.7107 26.8107 14.8541 27.2049C15.0014 27.5992 15.0771 28.0293 15.0811 28.4953C15.0771 29.2998 14.876 29.9808 14.4777 30.5384C14.0795 31.0959 13.5099 31.5201 12.7692 31.8108C12.0324 32.1015 11.1463 32.2469 10.1108 32.2469C9.04746 32.2469 8.11952 32.0896 7.32699 31.775C6.53844 31.4603 5.92512 30.9764 5.48704 30.3233C5.05293 29.6662 4.83389 28.8258 4.82991 27.8023H7.98411C8.00403 28.1767 8.09762 28.4913 8.26489 28.7462C8.43216 29.0011 8.66713 29.1942 8.9698 29.3257C9.27646 29.4571 9.64087 29.5228 10.063 29.5228C10.4175 29.5228 10.7142 29.479 10.9531 29.3914C11.1921 29.3038 11.3733 29.1823 11.4968 29.027C11.6202 28.8716 11.6839 28.6944 11.6879 28.4953C11.6839 28.3081 11.6222 28.1448 11.5027 28.0054C11.3872 27.8621 11.1961 27.7346 10.9292 27.6231C10.6624 27.5076 10.302 27.4001 9.84796 27.3005L8.62929 27.0377C7.54603 26.8027 6.69177 26.4104 6.0665 25.8608C5.44522 25.3072 5.13657 24.5525 5.14055 23.5967C5.13657 22.8201 5.34366 22.1411 5.76183 21.5596C6.18399 20.9742 6.76744 20.5182 7.51218 20.1916C8.2609 19.865 9.11915 19.7018 10.0869 19.7018C11.0746 19.7018 11.9289 19.867 12.6497 20.1976C13.3706 20.5281 13.9261 20.9941 14.3164 21.5955C14.7107 22.1929 14.9098 22.8918 14.9138 23.6923H11.7357ZM20.3628 19.869L22.8718 28.4953H22.9674L25.4765 19.869H29.228L25.1897 32.1035H20.6496L16.6112 19.869H20.3628ZM31.0793 32.1035V19.869H39.8967V22.5453H34.4008V24.6481H39.4427V27.3244H34.4008V29.4272H39.8728V32.1035H31.0793ZM41.8824 22.5453V19.869H52.5159V22.5453H48.836V32.1035H45.5623V22.5453H41.8824ZM57.7603 19.869V32.1035H54.4388V19.869H57.7603ZM60.0073 32.1035V19.869H63.3288V29.4272H68.2751V32.1035H60.0073ZM80.8764 19.869V32.1035H78.1045L73.6838 25.6756H73.6121V32.1035H70.2907V19.869H73.1103L77.4593 26.273H77.5549V19.869H80.8764ZM86.4419 19.869V32.1035H83.1204V19.869H86.4419ZM88.6889 32.1035V19.869H92.0104V24.8154H92.1776L95.8575 19.869H99.7286L95.5947 25.3172L99.8242 32.1035H95.8575L93.1095 27.5156L92.0104 28.9493V32.1035H88.6889ZM104.709 19.869V32.1035H101.387V19.869H104.709ZM108.796 32.2947C108.334 32.2947 107.937 32.1334 107.607 31.8108C107.28 31.4842 107.119 31.088 107.123 30.622C107.119 30.168 107.28 29.7797 107.607 29.4571C107.937 29.1345 108.334 28.9732 108.796 28.9732C109.234 28.9732 109.62 29.1345 109.955 29.4571C110.293 29.7797 110.464 30.168 110.468 30.622C110.464 30.9326 110.383 31.2154 110.223 31.4703C110.068 31.7212 109.865 31.9223 109.614 32.0736C109.363 32.221 109.09 32.2947 108.796 32.2947ZM112.886 19.869H117.02L119.863 26.7987H120.006L122.85 19.869H126.984V32.1035H123.734V25.0304H123.639L120.914 32.0079H118.955L116.231 24.9827H116.135V32.1035H112.886V19.869ZM141.083 25.9863C141.083 27.3483 140.818 28.4973 140.289 29.4332C139.759 30.3651 139.044 31.072 138.144 31.5539C137.244 32.0318 136.24 32.2708 135.133 32.2708C134.018 32.2708 133.01 32.0298 132.11 31.5479C131.214 31.0621 130.501 30.3532 129.972 29.4212C129.446 28.4853 129.183 27.3403 129.183 25.9863C129.183 24.6242 129.446 23.4772 129.972 22.5453C130.501 21.6094 131.214 20.9025 132.11 20.4246C133.01 19.9427 134.018 19.7018 135.133 19.7018C136.24 19.7018 137.244 19.9427 138.144 20.4246C139.044 20.9025 139.759 21.6094 140.289 22.5453C140.818 23.4772 141.083 24.6242 141.083 25.9863ZM137.666 25.9863C137.666 25.2535 137.568 24.6362 137.373 24.1344C137.182 23.6286 136.897 23.2463 136.519 22.9874C136.145 22.7245 135.683 22.5931 135.133 22.5931C134.584 22.5931 134.12 22.7245 133.741 22.9874C133.367 23.2463 133.082 23.6286 132.887 24.1344C132.696 24.6362 132.6 25.2535 132.6 25.9863C132.6 26.7191 132.696 27.3384 132.887 27.8441C133.082 28.3459 133.367 28.7283 133.741 28.9911C134.12 29.25 134.584 29.3794 135.133 29.3794C135.683 29.3794 136.145 29.25 136.519 28.9911C136.897 28.7283 137.182 28.3459 137.373 27.8441C137.568 27.3384 137.666 26.7191 137.666 25.9863ZM149.888 23.6923C149.856 23.294 149.707 22.9834 149.44 22.7604C149.177 22.5374 148.777 22.4258 148.239 22.4258C147.897 22.4258 147.616 22.4677 147.397 22.5513C147.182 22.6309 147.022 22.7405 146.919 22.8799C146.815 23.0192 146.762 23.1785 146.758 23.3578C146.75 23.5051 146.776 23.6385 146.835 23.758C146.899 23.8735 146.999 23.979 147.134 24.0746C147.269 24.1662 147.443 24.2499 147.654 24.3255C147.865 24.4012 148.116 24.4689 148.406 24.5286L149.41 24.7437C150.087 24.8871 150.667 25.0762 151.148 25.3112C151.63 25.5462 152.025 25.823 152.331 26.1416C152.638 26.4562 152.863 26.8107 153.006 27.2049C153.154 27.5992 153.229 28.0293 153.233 28.4953C153.229 29.2998 153.028 29.9808 152.63 30.5384C152.232 31.0959 151.662 31.5201 150.921 31.8108C150.185 32.1015 149.299 32.2469 148.263 32.2469C147.2 32.2469 146.272 32.0896 145.479 31.775C144.691 31.4603 144.077 30.9764 143.639 30.3233C143.205 29.6662 142.986 28.8258 142.982 27.8023H146.136C146.156 28.1767 146.25 28.4913 146.417 28.7462C146.584 29.0011 146.819 29.1942 147.122 29.3257C147.429 29.4571 147.793 29.5228 148.215 29.5228C148.57 29.5228 148.866 29.479 149.105 29.3914C149.344 29.3038 149.526 29.1823 149.649 29.027C149.772 28.8716 149.836 28.6944 149.84 28.4953C149.836 28.3081 149.774 28.1448 149.655 28.0054C149.539 27.8621 149.348 27.7346 149.081 27.6231C148.815 27.5076 148.454 27.4001 148 27.3005L146.782 27.0377C145.698 26.8027 144.844 26.4104 144.219 25.8608C143.597 25.3072 143.289 24.5525 143.293 23.5967C143.289 22.8201 143.496 22.1411 143.914 21.5596C144.336 20.9742 144.92 20.5182 145.664 20.1916C146.413 19.865 147.271 19.7018 148.239 19.7018C149.227 19.7018 150.081 19.867 150.802 20.1976C151.523 20.5281 152.078 20.9941 152.469 21.5955C152.863 22.1929 153.062 22.8918 153.066 23.6923H149.888ZM166.592 24.457H163.222C163.199 24.1782 163.135 23.9253 163.031 23.6983C162.932 23.4713 162.792 23.2761 162.613 23.1128C162.438 22.9456 162.225 22.8181 161.974 22.7305C161.723 22.6389 161.438 22.5931 161.12 22.5931C160.562 22.5931 160.09 22.7285 159.704 22.9993C159.322 23.2701 159.031 23.6584 158.832 24.1642C158.637 24.67 158.539 25.2774 158.539 25.9863C158.539 26.735 158.639 27.3623 158.838 27.868C159.041 28.3698 159.333 28.7482 159.716 29.0031C160.098 29.254 160.558 29.3794 161.096 29.3794C161.402 29.3794 161.677 29.3416 161.92 29.2659C162.163 29.1863 162.374 29.0728 162.553 28.9254C162.733 28.7781 162.878 28.6008 162.989 28.3937C163.105 28.1827 163.183 27.9457 163.222 27.6828L166.592 27.7067C166.552 28.2245 166.407 28.7522 166.156 29.2898C165.905 29.8235 165.548 30.3173 165.086 30.7713C164.628 31.2214 164.061 31.5838 163.384 31.8586C162.707 32.1334 161.92 32.2708 161.024 32.2708C159.901 32.2708 158.893 32.0298 158.001 31.5479C157.113 31.0661 156.41 30.3572 155.893 29.4212C155.379 28.4853 155.122 27.3403 155.122 25.9863C155.122 24.6242 155.385 23.4772 155.91 22.5453C156.436 21.6094 157.145 20.9025 158.037 20.4246C158.929 19.9427 159.925 19.7018 161.024 19.7018C161.797 19.7018 162.508 19.8073 163.157 20.0184C163.806 20.2294 164.375 20.5381 164.865 20.9443C165.355 21.3466 165.749 21.8424 166.048 22.4318C166.347 23.0212 166.528 23.6963 166.592 24.457ZM180.624 25.9863C180.624 27.3483 180.359 28.4973 179.829 29.4332C179.299 30.3651 178.585 31.072 177.685 31.5539C176.784 32.0318 175.781 32.2708 174.674 32.2708C173.559 32.2708 172.551 32.0298 171.651 31.5479C170.755 31.0621 170.042 30.3532 169.512 29.4212C168.987 28.4853 168.724 27.3403 168.724 25.9863C168.724 24.6242 168.987 23.4772 169.512 22.5453C170.042 21.6094 170.755 20.9025 171.651 20.4246C172.551 19.9427 173.559 19.7018 174.674 19.7018C175.781 19.7018 176.784 19.9427 177.685 20.4246C178.585 20.9025 179.299 21.6094 179.829 22.5453C180.359 23.4772 180.624 24.6242 180.624 25.9863ZM177.207 25.9863C177.207 25.2535 177.109 24.6362 176.914 24.1344C176.723 23.6286 176.438 23.2463 176.06 22.9874C175.685 22.7245 175.223 22.5931 174.674 22.5931C174.124 22.5931 173.66 22.7245 173.282 22.9874C172.907 23.2463 172.623 23.6286 172.428 24.1344C172.236 24.6362 172.141 25.2535 172.141 25.9863C172.141 26.7191 172.236 27.3384 172.428 27.8441C172.623 28.3459 172.907 28.7283 173.282 28.9911C173.66 29.25 174.124 29.3794 174.674 29.3794C175.223 29.3794 175.685 29.25 176.06 28.9911C176.438 28.7283 176.723 28.3459 176.914 27.8441C177.109 27.3384 177.207 26.7191 177.207 25.9863ZM185.168 32.1035L181.559 19.869H185.263L186.936 27.3961H187.032L189.015 19.869H191.93L193.913 27.42H194.009L195.682 19.869H199.385L195.777 32.1035H192.599L190.52 25.2694H190.425L188.346 32.1035H185.168Z" fill="black" fill-opacity="0.2"/>
<path d="M11.7357 23.6923C11.7038 23.294 11.5545 22.9834 11.2877 22.7604C11.0248 22.5374 10.6246 22.4258 10.0869 22.4258C9.74442 22.4258 9.46364 22.4677 9.2446 22.5513C9.02954 22.6309 8.87024 22.7405 8.76669 22.8799C8.66315 23.0192 8.60938 23.1785 8.6054 23.3578C8.59743 23.5051 8.62332 23.6385 8.68306 23.758C8.74678 23.8735 8.84634 23.979 8.98175 24.0746C9.11716 24.1662 9.2904 24.2499 9.50148 24.3255C9.71256 24.4012 9.96346 24.4689 10.2542 24.5286L11.2578 24.7437C11.9348 24.8871 12.5143 25.0762 12.9962 25.3112C13.4781 25.5462 13.8724 25.823 14.179 26.1416C14.4857 26.4562 14.7107 26.8107 14.8541 27.2049C15.0014 27.5992 15.0771 28.0293 15.0811 28.4953C15.0771 29.2998 14.876 29.9808 14.4777 30.5384C14.0795 31.0959 13.5099 31.5201 12.7692 31.8108C12.0324 32.1015 11.1463 32.2469 10.1108 32.2469C9.04746 32.2469 8.11952 32.0896 7.32699 31.775C6.53844 31.4603 5.92512 30.9764 5.48704 30.3233C5.05293 29.6662 4.83389 28.8258 4.82991 27.8023H7.98411C8.00403 28.1767 8.09762 28.4913 8.26489 28.7462C8.43216 29.0011 8.66713 29.1942 8.9698 29.3257C9.27646 29.4571 9.64087 29.5228 10.063 29.5228C10.4175 29.5228 10.7142 29.479 10.9531 29.3914C11.1921 29.3038 11.3733 29.1823 11.4968 29.027C11.6202 28.8716 11.6839 28.6944 11.6879 28.4953C11.6839 28.3081 11.6222 28.1448 11.5027 28.0054C11.3872 27.8621 11.1961 27.7346 10.9292 27.6231C10.6624 27.5076 10.302 27.4001 9.84796 27.3005L8.62929 27.0377C7.54603 26.8027 6.69177 26.4104 6.0665 25.8608C5.44522 25.3072 5.13657 24.5525 5.14055 23.5967C5.13657 22.8201 5.34366 22.1411 5.76183 21.5596C6.18399 20.9742 6.76744 20.5182 7.51218 20.1916C8.2609 19.865 9.11915 19.7018 10.0869 19.7018C11.0746 19.7018 11.9289 19.867 12.6497 20.1976C13.3706 20.5281 13.9261 20.9941 14.3164 21.5955C14.7107 22.1929 14.9098 22.8918 14.9138 23.6923H11.7357ZM20.3628 19.869L22.8718 28.4953H22.9674L25.4765 19.869H29.228L25.1897 32.1035H20.6496L16.6112 19.869H20.3628ZM31.0793 32.1035V19.869H39.8967V22.5453H34.4008V24.6481H39.4427V27.3244H34.4008V29.4272H39.8728V32.1035H31.0793ZM41.8824 22.5453V19.869H52.5159V22.5453H48.836V32.1035H45.5623V22.5453H41.8824ZM57.7603 19.869V32.1035H54.4388V19.869H57.7603ZM60.0073 32.1035V19.869H63.3288V29.4272H68.2751V32.1035H60.0073ZM80.8764 19.869V32.1035H78.1045L73.6838 25.6756H73.6121V32.1035H70.2907V19.869H73.1103L77.4593 26.273H77.5549V19.869H80.8764ZM86.4419 19.869V32.1035H83.1204V19.869H86.4419ZM88.6889 32.1035V19.869H92.0104V24.8154H92.1776L95.8575 19.869H99.7286L95.5947 25.3172L99.8242 32.1035H95.8575L93.1095 27.5156L92.0104 28.9493V32.1035H88.6889ZM104.709 19.869V32.1035H101.387V19.869H104.709ZM108.796 32.2947C108.334 32.2947 107.937 32.1334 107.607 31.8108C107.28 31.4842 107.119 31.088 107.123 30.622C107.119 30.168 107.28 29.7797 107.607 29.4571C107.937 29.1345 108.334 28.9732 108.796 28.9732C109.234 28.9732 109.62 29.1345 109.955 29.4571C110.293 29.7797 110.464 30.168 110.468 30.622C110.464 30.9326 110.383 31.2154 110.223 31.4703C110.068 31.7212 109.865 31.9223 109.614 32.0736C109.363 32.221 109.09 32.2947 108.796 32.2947ZM112.886 19.869H117.02L119.863 26.7987H120.006L122.85 19.869H126.984V32.1035H123.734V25.0304H123.639L120.914 32.0079H118.955L116.231 24.9827H116.135V32.1035H112.886V19.869ZM141.083 25.9863C141.083 27.3483 140.818 28.4973 140.289 29.4332C139.759 30.3651 139.044 31.072 138.144 31.5539C137.244 32.0318 136.24 32.2708 135.133 32.2708C134.018 32.2708 133.01 32.0298 132.11 31.5479C131.214 31.0621 130.501 30.3532 129.972 29.4212C129.446 28.4853 129.183 27.3403 129.183 25.9863C129.183 24.6242 129.446 23.4772 129.972 22.5453C130.501 21.6094 131.214 20.9025 132.11 20.4246C133.01 19.9427 134.018 19.7018 135.133 19.7018C136.24 19.7018 137.244 19.9427 138.144 20.4246C139.044 20.9025 139.759 21.6094 140.289 22.5453C140.818 23.4772 141.083 24.6242 141.083 25.9863ZM137.666 25.9863C137.666 25.2535 137.568 24.6362 137.373 24.1344C137.182 23.6286 136.897 23.2463 136.519 22.9874C136.145 22.7245 135.683 22.5931 135.133 22.5931C134.584 22.5931 134.12 22.7245 133.741 22.9874C133.367 23.2463 133.082 23.6286 132.887 24.1344C132.696 24.6362 132.6 25.2535 132.6 25.9863C132.6 26.7191 132.696 27.3384 132.887 27.8441C133.082 28.3459 133.367 28.7283 133.741 28.9911C134.12 29.25 134.584 29.3794 135.133 29.3794C135.683 29.3794 136.145 29.25 136.519 28.9911C136.897 28.7283 137.182 28.3459 137.373 27.8441C137.568 27.3384 137.666 26.7191 137.666 25.9863ZM149.888 23.6923C149.856 23.294 149.707 22.9834 149.44 22.7604C149.177 22.5374 148.777 22.4258 148.239 22.4258C147.897 22.4258 147.616 22.4677 147.397 22.5513C147.182 22.6309 147.022 22.7405 146.919 22.8799C146.815 23.0192 146.762 23.1785 146.758 23.3578C146.75 23.5051 146.776 23.6385 146.835 23.758C146.899 23.8735 146.999 23.979 147.134 24.0746C147.269 24.1662 147.443 24.2499 147.654 24.3255C147.865 24.4012 148.116 24.4689 148.406 24.5286L149.41 24.7437C150.087 24.8871 150.667 25.0762 151.148 25.3112C151.63 25.5462 152.025 25.823 152.331 26.1416C152.638 26.4562 152.863 26.8107 153.006 27.2049C153.154 27.5992 153.229 28.0293 153.233 28.4953C153.229 29.2998 153.028 29.9808 152.63 30.5384C152.232 31.0959 151.662 31.5201 150.921 31.8108C150.185 32.1015 149.299 32.2469 148.263 32.2469C147.2 32.2469 146.272 32.0896 145.479 31.775C144.691 31.4603 144.077 30.9764 143.639 30.3233C143.205 29.6662 142.986 28.8258 142.982 27.8023H146.136C146.156 28.1767 146.25 28.4913 146.417 28.7462C146.584 29.0011 146.819 29.1942 147.122 29.3257C147.429 29.4571 147.793 29.5228 148.215 29.5228C148.57 29.5228 148.866 29.479 149.105 29.3914C149.344 29.3038 149.526 29.1823 149.649 29.027C149.772 28.8716 149.836 28.6944 149.84 28.4953C149.836 28.3081 149.774 28.1448 149.655 28.0054C149.539 27.8621 149.348 27.7346 149.081 27.6231C148.815 27.5076 148.454 27.4001 148 27.3005L146.782 27.0377C145.698 26.8027 144.844 26.4104 144.219 25.8608C143.597 25.3072 143.289 24.5525 143.293 23.5967C143.289 22.8201 143.496 22.1411 143.914 21.5596C144.336 20.9742 144.92 20.5182 145.664 20.1916C146.413 19.865 147.271 19.7018 148.239 19.7018C149.227 19.7018 150.081 19.867 150.802 20.1976C151.523 20.5281 152.078 20.9941 152.469 21.5955C152.863 22.1929 153.062 22.8918 153.066 23.6923H149.888ZM166.592 24.457H163.222C163.199 24.1782 163.135 23.9253 163.031 23.6983C162.932 23.4713 162.792 23.2761 162.613 23.1128C162.438 22.9456 162.225 22.8181 161.974 22.7305C161.723 22.6389 161.438 22.5931 161.12 22.5931C160.562 22.5931 160.09 22.7285 159.704 22.9993C159.322 23.2701 159.031 23.6584 158.832 24.1642C158.637 24.67 158.539 25.2774 158.539 25.9863C158.539 26.735 158.639 27.3623 158.838 27.868C159.041 28.3698 159.333 28.7482 159.716 29.0031C160.098 29.254 160.558 29.3794 161.096 29.3794C161.402 29.3794 161.677 29.3416 161.92 29.2659C162.163 29.1863 162.374 29.0728 162.553 28.9254C162.733 28.7781 162.878 28.6008 162.989 28.3937C163.105 28.1827 163.183 27.9457 163.222 27.6828L166.592 27.7067C166.552 28.2245 166.407 28.7522 166.156 29.2898C165.905 29.8235 165.548 30.3173 165.086 30.7713C164.628 31.2214 164.061 31.5838 163.384 31.8586C162.707 32.1334 161.92 32.2708 161.024 32.2708C159.901 32.2708 158.893 32.0298 158.001 31.5479C157.113 31.0661 156.41 30.3572 155.893 29.4212C155.379 28.4853 155.122 27.3403 155.122 25.9863C155.122 24.6242 155.385 23.4772 155.91 22.5453C156.436 21.6094 157.145 20.9025 158.037 20.4246C158.929 19.9427 159.925 19.7018 161.024 19.7018C161.797 19.7018 162.508 19.8073 163.157 20.0184C163.806 20.2294 164.375 20.5381 164.865 20.9443C165.355 21.3466 165.749 21.8424 166.048 22.4318C166.347 23.0212 166.528 23.6963 166.592 24.457ZM180.624 25.9863C180.624 27.3483 180.359 28.4973 179.829 29.4332C179.299 30.3651 178.585 31.072 177.685 31.5539C176.784 32.0318 175.781 32.2708 174.674 32.2708C173.559 32.2708 172.551 32.0298 171.651 31.5479C170.755 31.0621 170.042 30.3532 169.512 29.4212C168.987 28.4853 168.724 27.3403 168.724 25.9863C168.724 24.6242 168.987 23.4772 169.512 22.5453C170.042 21.6094 170.755 20.9025 171.651 20.4246C172.551 19.9427 173.559 19.7018 174.674 19.7018C175.781 19.7018 176.784 19.9427 177.685 20.4246C178.585 20.9025 179.299 21.6094 179.829 22.5453C180.359 23.4772 180.624 24.6242 180.624 25.9863ZM177.207 25.9863C177.207 25.2535 177.109 24.6362 176.914 24.1344C176.723 23.6286 176.438 23.2463 176.06 22.9874C175.685 22.7245 175.223 22.5931 174.674 22.5931C174.124 22.5931 173.66 22.7245 173.282 22.9874C172.907 23.2463 172.623 23.6286 172.428 24.1344C172.236 24.6362 172.141 25.2535 172.141 25.9863C172.141 26.7191 172.236 27.3384 172.428 27.8441C172.623 28.3459 172.907 28.7283 173.282 28.9911C173.66 29.25 174.124 29.3794 174.674 29.3794C175.223 29.3794 175.685 29.25 176.06 28.9911C176.438 28.7283 176.723 28.3459 176.914 27.8441C177.109 27.3384 177.207 26.7191 177.207 25.9863ZM185.168 32.1035L181.559 19.869H185.263L186.936 27.3961H187.032L189.015 19.869H191.93L193.913 27.42H194.009L195.682 19.869H199.385L195.777 32.1035H192.599L190.52 25.2694H190.425L188.346 32.1035H185.168Z" fill="black" fill-opacity="0.2"/>
<rect width="200" height="16.6075" transform="translate(0 36.6641)" fill="#852D75"/>
<path d="M7.43808 41.6718H9.28335V45.2296H9.33645L11.7525 41.6718H13.319V48.4688H11.4738V44.8977H11.4339L8.97802 48.4688H7.43808V41.6718ZM14.1919 48.4688V41.6718H16.0371V44.3269H18.4798V41.6718H20.3251V48.4688H18.4798V45.8137H16.0371V48.4688H14.1919ZM21.0154 43.1586V41.6718H26.9229V43.1586H24.8785V48.4688H23.0598V43.1586H21.0154ZM27.6173 48.4688V41.6718H32.5159V43.1586H29.4626V44.3269H32.2637V45.8137H29.4626V46.9819H32.5026V48.4688H27.6173ZM33.4311 48.4688V41.6718H36.3649C36.8694 41.6718 37.3108 41.7714 37.6891 41.9705C38.0675 42.1696 38.3617 42.4495 38.5719 42.8102C38.7821 43.1708 38.8872 43.5923 38.8872 44.0746C38.8872 44.5614 38.7788 44.9829 38.562 45.3391C38.3474 45.6953 38.0453 45.9697 37.6559 46.1622C37.2687 46.3547 36.8163 46.4509 36.2985 46.4509H34.5462V45.0172H35.9268C36.1437 45.0172 36.3284 44.9796 36.4811 44.9043C36.6359 44.8269 36.7543 44.7174 36.8362 44.5758C36.9203 44.4342 36.9623 44.2671 36.9623 44.0746C36.9623 43.8799 36.9203 43.714 36.8362 43.5768C36.7543 43.4374 36.6359 43.3312 36.4811 43.2582C36.3284 43.183 36.1437 43.1454 35.9268 43.1454H35.2763V48.4688H33.4311ZM39.5643 48.4688V41.6718H41.4095V44.3269H43.8522V41.6718H45.6974V48.4688H43.8522V45.8137H41.4095V48.4688H39.5643ZM46.5736 48.4688V41.6718H51.4722V43.1586H48.4189V44.3269H51.2199V45.8137H48.4189V46.9819H51.4589V48.4688H46.5736ZM52.2015 43.1586V41.6718H58.109V43.1586H56.0646V48.4688H54.2459V43.1586H52.2015ZM62.1754 44.38V45.7606H58.9893V44.38H62.1754ZM63.239 41.6718H65.5357L67.1154 45.5216H67.1951L68.7748 41.6718H71.0715V48.4688H69.266V44.5393H69.2129L67.6995 48.4156H66.611L65.0976 44.5127H65.0445V48.4688H63.239V41.6718ZM73.7116 48.4688H71.7203L73.9638 41.6718H76.4861L78.7296 48.4688H76.7383L75.2515 43.5436H75.1984L73.7116 48.4688ZM73.3399 45.7871H77.0835V47.1678H73.3399V45.7871ZM84.1634 41.6718V43.1586H81.2295V48.4688H79.3843V41.6718H84.1634ZM85.7589 48.4688H83.7676L86.0111 41.6718H88.5334L90.7769 48.4688H88.7857L87.2988 43.5436H87.2457L85.7589 48.4688ZM85.3872 45.7871H89.1308V47.1678H85.3872V45.7871ZM94.0999 48.5617C93.5645 48.5617 93.0888 48.4699 92.6728 48.2862C92.2591 48.1004 91.9338 47.8448 91.6971 47.5196C91.4604 47.1943 91.3409 46.8204 91.3387 46.3978H93.1972C93.1994 46.5283 93.2392 46.6456 93.3167 46.7496C93.3963 46.8514 93.5047 46.931 93.6419 46.9886C93.7791 47.0461 93.9362 47.0748 94.1132 47.0748C94.2836 47.0748 94.434 47.045 94.5646 46.9852C94.6951 46.9233 94.7969 46.8381 94.8699 46.7297C94.9429 46.6213 94.9783 46.4974 94.9761 46.358C94.9783 46.2208 94.9363 46.0991 94.85 45.9929C94.7659 45.8867 94.6475 45.8037 94.4949 45.744C94.3422 45.6843 94.1663 45.6544 93.9672 45.6544H93.2769V44.38H93.9672C94.1508 44.38 94.3123 44.3501 94.4517 44.2904C94.5933 44.2306 94.7028 44.1476 94.7803 44.0414C94.8599 43.9352 94.8987 43.8136 94.8964 43.6764C94.8987 43.5436 94.8666 43.4264 94.8002 43.3246C94.7338 43.2228 94.6409 43.1432 94.5214 43.0856C94.4041 43.0281 94.2681 42.9993 94.1132 42.9993C93.945 42.9993 93.7946 43.0292 93.6618 43.0889C93.5313 43.1487 93.4284 43.2317 93.3532 43.3379C93.278 43.4441 93.2392 43.5657 93.237 43.7029H91.4714C91.4736 43.287 91.5876 42.9197 91.8133 42.6011C92.0411 42.2825 92.3531 42.0325 92.7492 41.851C93.1452 41.6696 93.5999 41.5789 94.1132 41.5789C94.6154 41.5789 95.0591 41.6641 95.444 41.8344C95.8312 42.0048 96.1333 42.2393 96.3501 42.538C96.5691 42.8345 96.6775 43.1741 96.6753 43.5569C96.6798 43.9375 96.5492 44.2494 96.2837 44.4928C96.0204 44.7362 95.6863 44.88 95.2814 44.9243V44.9774C95.8301 45.0371 96.2428 45.2052 96.5193 45.4818C96.7959 45.7562 96.932 46.1013 96.9276 46.5173C96.9298 46.9155 96.8103 47.2684 96.5691 47.576C96.3302 47.8835 95.9972 48.1247 95.5702 48.2995C95.1454 48.4743 94.6553 48.5617 94.0999 48.5617ZM97.7382 41.6718H99.5834V45.2296H99.6365L102.053 41.6718H103.619V48.4688H101.774V44.8977H101.734L99.2781 48.4688H97.7382V41.6718ZM104.492 48.4688V41.6718H106.337V44.3269H108.78V41.6718H110.625V48.4688H108.78V45.8137H106.337V48.4688H104.492ZM119.709 44.2207H117.837C117.824 44.0658 117.788 43.9253 117.731 43.7992C117.675 43.6731 117.598 43.5646 117.498 43.4739C117.401 43.381 117.283 43.3102 117.143 43.2615C117.004 43.2106 116.846 43.1852 116.669 43.1852C116.359 43.1852 116.097 43.2604 115.882 43.4109C115.67 43.5613 115.508 43.777 115.398 44.058C115.289 44.339 115.235 44.6764 115.235 45.0703C115.235 45.4862 115.29 45.8347 115.401 46.1157C115.514 46.3945 115.676 46.6047 115.889 46.7463C116.101 46.8857 116.357 46.9554 116.655 46.9554C116.826 46.9554 116.978 46.9343 117.113 46.8923C117.248 46.8481 117.366 46.785 117.465 46.7031C117.565 46.6213 117.646 46.5228 117.708 46.4078C117.772 46.2905 117.815 46.1589 117.837 46.0128L119.709 46.0261C119.687 46.3137 119.606 46.6069 119.466 46.9056C119.327 47.2021 119.129 47.4764 118.872 47.7287C118.618 47.9787 118.303 48.18 117.927 48.3327C117.55 48.4853 117.113 48.5617 116.616 48.5617C115.992 48.5617 115.432 48.4278 114.936 48.1601C114.443 47.8924 114.052 47.4985 113.765 46.9786C113.479 46.4587 113.337 45.8225 113.337 45.0703C113.337 44.3136 113.483 43.6764 113.775 43.1586C114.067 42.6387 114.461 42.246 114.956 41.9805C115.452 41.7127 116.005 41.5789 116.616 41.5789C117.045 41.5789 117.44 41.6375 117.8 41.7548C118.161 41.872 118.477 42.0435 118.75 42.2692C119.022 42.4927 119.241 42.7681 119.407 43.0956C119.573 43.423 119.673 43.7981 119.709 44.2207ZM120.546 48.4688V41.6718H123.493C124.011 41.6718 124.446 41.7415 124.797 41.8809C125.151 42.0203 125.418 42.2172 125.597 42.4716C125.779 42.7261 125.869 43.0259 125.869 43.371C125.869 43.6211 125.814 43.849 125.703 44.0547C125.595 44.2605 125.442 44.4331 125.245 44.5725C125.048 44.7096 124.818 44.8048 124.555 44.8579V44.9243C124.847 44.9353 125.113 45.0094 125.352 45.1466C125.591 45.2816 125.781 45.4685 125.922 45.7075C126.064 45.9442 126.135 46.223 126.135 46.5438C126.135 46.9155 126.037 47.2463 125.843 47.5362C125.65 47.826 125.376 48.0539 125.02 48.2198C124.663 48.3858 124.239 48.4688 123.745 48.4688H120.546ZM122.391 46.9952H123.254C123.564 46.9952 123.796 46.9377 123.951 46.8226C124.106 46.7054 124.183 46.5328 124.183 46.3049C124.183 46.1456 124.147 46.0106 124.074 45.9C124.001 45.7894 123.897 45.7053 123.762 45.6478C123.629 45.5902 123.469 45.5615 123.281 45.5615H122.391V46.9952ZM122.391 44.4198H123.148C123.309 44.4198 123.452 44.3943 123.576 44.3435C123.7 44.2926 123.796 44.2196 123.865 44.1244C123.936 44.0271 123.971 43.9087 123.971 43.7693C123.971 43.5591 123.896 43.3987 123.745 43.2881C123.595 43.1752 123.405 43.1188 123.174 43.1188H122.391V44.4198ZM126.789 48.4688V41.6718H131.687V43.1586H128.634V44.3269H131.435V45.8137H128.634V46.9819H131.674V48.4688H126.789ZM132.417 43.1586V41.6718H138.324V43.1586H136.28V48.4688H134.461V43.1586H132.417ZM139.018 41.6718H140.864V45.2296H140.917L143.333 41.6718H144.899V48.4688H143.054V44.8977H143.014L140.558 48.4688H139.018V41.6718ZM145.547 48.4688V47.0483L145.732 47.0217C145.958 46.9863 146.145 46.889 146.293 46.7297C146.444 46.5682 146.559 46.3126 146.638 45.963C146.72 45.6112 146.772 45.1322 146.794 44.526L146.901 41.6718H151.826V48.4688H150.047V43.1055H148.6L148.494 45.2429C148.454 46.0349 148.348 46.6666 148.175 47.1379C148.003 47.6092 147.74 47.9488 147.389 48.1568C147.037 48.3648 146.573 48.4688 145.998 48.4688H145.547ZM153.868 43.9552H155.275C155.848 43.9552 156.348 44.047 156.775 44.2306C157.204 44.4143 157.537 44.6731 157.774 45.0072C158.013 45.3413 158.131 45.734 158.129 46.1854C158.131 46.6368 158.013 47.0339 157.774 47.3769C157.537 47.7198 157.204 47.9875 156.775 48.18C156.348 48.3725 155.848 48.4688 155.275 48.4688H152.739V41.6718H154.585V47.0217H155.275C155.498 47.0217 155.685 46.9852 155.836 46.9122C155.988 46.8392 156.103 46.7385 156.181 46.6102C156.261 46.4819 156.299 46.3359 156.297 46.1721C156.299 45.9398 156.213 45.7473 156.038 45.5947C155.863 45.4398 155.609 45.3623 155.275 45.3623H153.868V43.9552ZM159.179 48.4688V41.6718H161.025V44.3269H163.467V41.6718H165.313V48.4688H163.467V45.8137H161.025V48.4688H159.179ZM166.189 41.6718H168.034V45.2296H168.087L170.503 41.6718H172.07V48.4688H170.225V44.8977H170.185L167.729 48.4688H166.189V41.6718ZM177.131 48.4688L175.047 45.7208H174.788V48.4688H172.943V41.6718H174.788V44.2339H175.027L176.978 41.6718H179.301L176.713 44.9375L179.448 48.4688H177.131ZM186.098 45.0703C186.098 45.827 185.951 46.4653 185.657 46.9852C185.363 47.503 184.966 47.8957 184.466 48.1634C183.966 48.4289 183.408 48.5617 182.793 48.5617C182.173 48.5617 181.614 48.4278 181.114 48.1601C180.616 47.8902 180.22 47.4963 179.925 46.9786C179.633 46.4587 179.487 45.8225 179.487 45.0703C179.487 44.3136 179.633 43.6764 179.925 43.1586C180.22 42.6387 180.616 42.246 181.114 41.9805C181.614 41.7127 182.173 41.5789 182.793 41.5789C183.408 41.5789 183.966 41.7127 184.466 41.9805C184.966 42.246 185.363 42.6387 185.657 43.1586C185.951 43.6764 186.098 44.3136 186.098 45.0703ZM184.2 45.0703C184.2 44.6632 184.146 44.3202 184.037 44.0414C183.931 43.7605 183.773 43.548 183.563 43.4042C183.355 43.2582 183.098 43.1852 182.793 43.1852C182.488 43.1852 182.23 43.2582 182.02 43.4042C181.812 43.548 181.653 43.7605 181.545 44.0414C181.439 44.3202 181.386 44.6632 181.386 45.0703C181.386 45.4774 181.439 45.8214 181.545 46.1024C181.653 46.3812 181.812 46.5936 182.02 46.7396C182.23 46.8835 182.488 46.9554 182.793 46.9554C183.098 46.9554 183.355 46.8835 183.563 46.7396C183.773 46.5936 183.931 46.3812 184.037 46.1024C184.146 45.8214 184.2 45.4774 184.2 45.0703ZM186.952 48.4688V41.6718H189.899C190.417 41.6718 190.852 41.7415 191.204 41.8809C191.558 42.0203 191.824 42.2172 192.003 42.4716C192.185 42.7261 192.276 43.0259 192.276 43.371C192.276 43.6211 192.22 43.849 192.11 44.0547C192.001 44.2605 191.849 44.4331 191.652 44.5725C191.455 44.7096 191.225 44.8048 190.961 44.8579V44.9243C191.253 44.9353 191.519 45.0094 191.758 45.1466C191.997 45.2816 192.187 45.4685 192.329 45.7075C192.47 45.9442 192.541 46.223 192.541 46.5438C192.541 46.9155 192.444 47.2463 192.249 47.5362C192.057 47.826 191.782 48.0539 191.426 48.2198C191.07 48.3858 190.645 48.4688 190.152 48.4688H186.952ZM188.797 46.9952H189.66C189.97 46.9952 190.202 46.9377 190.357 46.8226C190.512 46.7054 190.59 46.5328 190.59 46.3049C190.59 46.1456 190.553 46.0106 190.48 45.9C190.407 45.7894 190.303 45.7053 190.168 45.6478C190.035 45.5902 189.875 45.5615 189.687 45.5615H188.797V46.9952ZM188.797 44.4198H189.554C189.716 44.4198 189.858 44.3943 189.982 44.3435C190.106 44.2926 190.202 44.2196 190.271 44.1244C190.342 44.0271 190.377 43.9087 190.377 43.7693C190.377 43.5591 190.302 43.3987 190.152 43.2881C190.001 43.1752 189.811 43.1188 189.581 43.1188H188.797V44.4198Z" fill="#F9F9F9"/>
<path d="M99.0654 0.466018L100 0.216797V3.95511H99.0654V0.466018Z" fill="#30373D"/>
<path d="M99.0654 0.466018L100 0.216797V3.95511H99.0654V0.466018Z" fill="black" fill-opacity="0.2"/>
<path d="M99.0654 0.466018L100 0.216797V3.95511H99.0654V0.466018Z" fill="black" fill-opacity="0.2"/>
<path d="M99.0654 0.466018L100 0.216797V3.95511H99.0654V0.466018Z" fill="black" fill-opacity="0.2"/>
<path d="M99.0654 0.466018L100 0.216797V3.95511H99.0654V0.466018Z" fill="black" fill-opacity="0.2"/>
<path d="M100.037 -0.15625L99.9421 0.869273L0.123493 13.0272L0.0144095 12.0579L100.037 -0.15625Z" fill="#30373D"/>
<path d="M100.037 -0.15625L99.9421 0.869273L0.123493 13.0272L0.0144095 12.0579L100.037 -0.15625Z" fill="black" fill-opacity="0.2"/>
<path d="M100.037 -0.15625L99.9421 0.869273L0.123493 13.0272L0.0144095 12.0579L100.037 -0.15625Z" fill="black" fill-opacity="0.2"/>
<path d="M100.037 -0.15625L99.9421 0.869273L0.123493 13.0272L0.0144095 12.0579L100.037 -0.15625Z" fill="black" fill-opacity="0.2"/>
<path d="M100.037 -0.15625L99.9421 0.869273L0.123493 13.0272L0.0144095 12.0579L100.037 -0.15625Z" fill="black" fill-opacity="0.2"/>
<circle cx="99.5328" cy="8.16069" r="4.20561" fill="#852D75"/>
<mask id="path-7-inside-1_5001_3087" fill="white">
<path d="M111.215 14.7018C111.215 13.1676 110.913 11.6485 110.326 10.2312C109.739 8.81382 108.878 7.52598 107.793 6.44118C106.709 5.35638 105.421 4.49588 104.003 3.90879C102.586 3.3217 101.067 3.01953 99.5328 3.01953C97.9987 3.01953 96.4796 3.3217 95.0622 3.90879C93.6449 4.49588 92.357 5.35638 91.2722 6.44118C90.1874 7.52598 89.3269 8.81382 88.7398 10.2312C88.1528 11.6485 87.8506 13.1676 87.8506 14.7018L99.5328 14.7018H111.215Z"/>
</mask>
<path d="M111.215 14.7018C111.215 13.1676 110.913 11.6485 110.326 10.2312C109.739 8.81382 108.878 7.52598 107.793 6.44118C106.709 5.35638 105.421 4.49588 104.003 3.90879C102.586 3.3217 101.067 3.01953 99.5328 3.01953C97.9987 3.01953 96.4796 3.3217 95.0622 3.90879C93.6449 4.49588 92.357 5.35638 91.2722 6.44118C90.1874 7.52598 89.3269 8.81382 88.7398 10.2312C88.1528 11.6485 87.8506 13.1676 87.8506 14.7018L99.5328 14.7018H111.215Z" stroke="#30373D" stroke-width="1.86916" mask="url(#path-7-inside-1_5001_3087)"/>
<path d="M111.215 14.7018C111.215 13.1676 110.913 11.6485 110.326 10.2312C109.739 8.81382 108.878 7.52598 107.793 6.44118C106.709 5.35638 105.421 4.49588 104.003 3.90879C102.586 3.3217 101.067 3.01953 99.5328 3.01953C97.9987 3.01953 96.4796 3.3217 95.0622 3.90879C93.6449 4.49588 92.357 5.35638 91.2722 6.44118C90.1874 7.52598 89.3269 8.81382 88.7398 10.2312C88.1528 11.6485 87.8506 13.1676 87.8506 14.7018L99.5328 14.7018H111.215Z" stroke="black" stroke-opacity="0.2" stroke-width="1.86916" mask="url(#path-7-inside-1_5001_3087)"/>
<path d="M111.215 14.7018C111.215 13.1676 110.913 11.6485 110.326 10.2312C109.739 8.81382 108.878 7.52598 107.793 6.44118C106.709 5.35638 105.421 4.49588 104.003 3.90879C102.586 3.3217 101.067 3.01953 99.5328 3.01953C97.9987 3.01953 96.4796 3.3217 95.0622 3.90879C93.6449 4.49588 92.357 5.35638 91.2722 6.44118C90.1874 7.52598 89.3269 8.81382 88.7398 10.2312C88.1528 11.6485 87.8506 13.1676 87.8506 14.7018L99.5328 14.7018H111.215Z" stroke="black" stroke-opacity="0.2" stroke-width="1.86916" mask="url(#path-7-inside-1_5001_3087)"/>
<path d="M111.215 14.7018C111.215 13.1676 110.913 11.6485 110.326 10.2312C109.739 8.81382 108.878 7.52598 107.793 6.44118C106.709 5.35638 105.421 4.49588 104.003 3.90879C102.586 3.3217 101.067 3.01953 99.5328 3.01953C97.9987 3.01953 96.4796 3.3217 95.0622 3.90879C93.6449 4.49588 92.357 5.35638 91.2722 6.44118C90.1874 7.52598 89.3269 8.81382 88.7398 10.2312C88.1528 11.6485 87.8506 13.1676 87.8506 14.7018L99.5328 14.7018H111.215Z" stroke="black" stroke-opacity="0.2" stroke-width="1.86916" mask="url(#path-7-inside-1_5001_3087)"/>
<path d="M111.215 14.7018C111.215 13.1676 110.913 11.6485 110.326 10.2312C109.739 8.81382 108.878 7.52598 107.793 6.44118C106.709 5.35638 105.421 4.49588 104.003 3.90879C102.586 3.3217 101.067 3.01953 99.5328 3.01953C97.9987 3.01953 96.4796 3.3217 95.0622 3.90879C93.6449 4.49588 92.357 5.35638 91.2722 6.44118C90.1874 7.52598 89.3269 8.81382 88.7398 10.2312C88.1528 11.6485 87.8506 13.1676 87.8506 14.7018L99.5328 14.7018H111.215Z" stroke="black" stroke-opacity="0.2" stroke-width="1.86916" mask="url(#path-7-inside-1_5001_3087)"/>
</g>
<defs>
<clipPath id="clip0_5001_3087">
<rect width="200" height="53" fill="white"/>
</clipPath>
</defs>
</svg>
