<svg width="30" height="30" viewBox="0 0 30 30" fill="none" xmlns="http://www.w3.org/2000/svg">
<path d="M28 14C28.5523 14 29 14.4477 29 15C29 15.5523 28.5523 16 28 16V14ZM2.29289 15.7071C1.90237 15.3166 1.90237 14.6834 2.29289 14.2929L8.65685 7.92893C9.04738 7.53841 9.68054 7.53841 10.0711 7.92893C10.4616 8.31946 10.4616 8.95262 10.0711 9.34315L4.41421 15L10.0711 20.6569C10.4616 21.0474 10.4616 21.6805 10.0711 22.0711C9.68054 22.4616 9.04738 22.4616 8.65685 22.0711L2.29289 15.7071ZM28 16H3V14H28V16Z" fill="#30373D"/>
<path d="M28 14C28.5523 14 29 14.4477 29 15C29 15.5523 28.5523 16 28 16V14ZM2.29289 15.7071C1.90237 15.3166 1.90237 14.6834 2.29289 14.2929L8.65685 7.92893C9.04738 7.53841 9.68054 7.53841 10.0711 7.92893C10.4616 8.31946 10.4616 8.95262 10.0711 9.34315L4.41421 15L10.0711 20.6569C10.4616 21.0474 10.4616 21.6805 10.0711 22.0711C9.68054 22.4616 9.04738 22.4616 8.65685 22.0711L2.29289 15.7071ZM28 16H3V14H28V16Z" fill="black" fill-opacity="0.2"/>
<path d="M28 14C28.5523 14 29 14.4477 29 15C29 15.5523 28.5523 16 28 16V14ZM2.29289 15.7071C1.90237 15.3166 1.90237 14.6834 2.29289 14.2929L8.65685 7.92893C9.04738 7.53841 9.68054 7.53841 10.0711 7.92893C10.4616 8.31946 10.4616 8.95262 10.0711 9.34315L4.41421 15L10.0711 20.6569C10.4616 21.0474 10.4616 21.6805 10.0711 22.0711C9.68054 22.4616 9.04738 22.4616 8.65685 22.0711L2.29289 15.7071ZM28 16H3V14H28V16Z" fill="black" fill-opacity="0.2"/>
<path d="M28 14C28.5523 14 29 14.4477 29 15C29 15.5523 28.5523 16 28 16V14ZM2.29289 15.7071C1.90237 15.3166 1.90237 14.6834 2.29289 14.2929L8.65685 7.92893C9.04738 7.53841 9.68054 7.53841 10.0711 7.92893C10.4616 8.31946 10.4616 8.95262 10.0711 9.34315L4.41421 15L10.0711 20.6569C10.4616 21.0474 10.4616 21.6805 10.0711 22.0711C9.68054 22.4616 9.04738 22.4616 8.65685 22.0711L2.29289 15.7071ZM28 16H3V14H28V16Z" fill="black" fill-opacity="0.2"/>
<path d="M28 14C28.5523 14 29 14.4477 29 15C29 15.5523 28.5523 16 28 16V14ZM2.29289 15.7071C1.90237 15.3166 1.90237 14.6834 2.29289 14.2929L8.65685 7.92893C9.04738 7.53841 9.68054 7.53841 10.0711 7.92893C10.4616 8.31946 10.4616 8.95262 10.0711 9.34315L4.41421 15L10.0711 20.6569C10.4616 21.0474 10.4616 21.6805 10.0711 22.0711C9.68054 22.4616 9.04738 22.4616 8.65685 22.0711L2.29289 15.7071ZM28 16H3V14H28V16Z" fill="black" fill-opacity="0.2"/>
</svg>
